<svg width="28" height="27" viewBox="0 0 28 27" fill="none" xmlns="http://www.w3.org/2000/svg">
<rect width="27.2015" height="27" rx="13.5" fill="#041068"/>
<path d="M16.6231 15.5149C16.2262 15.5149 15.868 15.6711 15.5985 15.9215L12.0442 13.8526C12.0694 13.7368 12.0896 13.6209 12.0896 13.5C12.0896 13.3791 12.0694 13.2633 12.0442 13.1474L15.5955 11.0771C15.8675 11.3289 16.2252 11.4851 16.6231 11.4851C17.4593 11.4851 18.1343 10.8101 18.1343 9.9739C18.1343 9.13771 17.4593 8.46271 16.6231 8.46271C15.7869 8.46271 15.1119 9.13771 15.1119 9.9739C15.1119 10.0948 15.1321 10.2107 15.1573 10.3265L11.606 12.3968C11.334 12.145 10.9763 11.9888 10.5784 11.9888C9.74217 11.9888 9.06717 12.6638 9.06717 13.5C9.06717 14.3362 9.74217 15.0112 10.5784 15.0112C10.9763 15.0112 11.334 14.8551 11.606 14.6032L15.1563 16.6776C15.128 16.7916 15.1131 16.9086 15.1119 17.0261C15.1119 17.325 15.2006 17.6172 15.3666 17.8657C15.5327 18.1142 15.7687 18.3079 16.0448 18.4223C16.321 18.5367 16.6248 18.5666 16.918 18.5083C17.2111 18.45 17.4804 18.3061 17.6917 18.0947C17.9031 17.8834 18.047 17.6141 18.1053 17.321C18.1636 17.0278 18.1337 16.724 18.0193 16.4478C17.9049 16.1717 17.7112 15.9357 17.4627 15.7696C17.2142 15.6036 16.922 15.5149 16.6231 15.5149Z" fill="white"/>
</svg>
