<svg width="301" height="441" viewBox="0 0 301 441" fill="none" xmlns="http://www.w3.org/2000/svg">
<g filter="url(#filter0_d_146_976)">
<rect x="4" width="293" height="433" rx="31" fill="#FEFEFE"/>
</g>
<path d="M37 157C37 144.85 46.8497 135 59 135H219C231.15 135 241 144.85 241 157V408H59C46.8497 408 37 398.15 37 386V157Z" fill="#EBE0DA"/>
<ellipse cx="220.5" cy="382" rx="13.5" ry="13" fill="#207E64"/>
<path d="M214.256 387.25L227.375 382L214.256 376.75L214.25 380.833L223.625 382L214.25 383.167L214.256 387.25Z" fill="#F8F8F8"/>
<path d="M51.924 41.622L46.996 51.016V57H45.456V51.016L40.484 41.622H42.222L46.226 49.608L50.208 41.622H51.924ZM59.5111 50.972C59.5111 49.74 59.7531 48.662 60.2371 47.738C60.7357 46.7993 61.4177 46.0807 62.2831 45.582C63.1631 45.0687 64.1531 44.812 65.2531 44.812C66.3971 44.812 67.3797 45.076 68.2011 45.604C69.0371 46.132 69.6384 46.8067 70.0051 47.628V44.988H71.5451V57H70.0051V54.338C69.6237 55.1593 69.0151 55.8413 68.1791 56.384C67.3577 56.912 66.3751 57.176 65.2311 57.176C64.1457 57.176 63.1631 56.9193 62.2831 56.406C61.4177 55.8927 60.7357 55.1667 60.2371 54.228C59.7531 53.2893 59.5111 52.204 59.5111 50.972ZM70.0051 50.994C70.0051 50.026 69.8071 49.1753 69.4111 48.442C69.0151 47.7087 68.4724 47.144 67.7831 46.748C67.1084 46.352 66.3604 46.154 65.5391 46.154C64.6884 46.154 63.9257 46.3447 63.2511 46.726C62.5764 47.1073 62.0411 47.6647 61.6451 48.398C61.2637 49.1167 61.0731 49.9747 61.0731 50.972C61.0731 51.9547 61.2637 52.82 61.6451 53.568C62.0411 54.3013 62.5764 54.866 63.2511 55.262C63.9257 55.6433 64.6884 55.834 65.5391 55.834C66.3604 55.834 67.1084 55.636 67.7831 55.24C68.4724 54.844 69.0151 54.2793 69.4111 53.546C69.8071 52.8127 70.0051 51.962 70.0051 50.994ZM80.7808 44.768C81.6901 44.768 82.5041 44.9587 83.2228 45.34C83.9561 45.7213 84.5281 46.308 84.9388 47.1C85.3641 47.8773 85.5768 48.8307 85.5768 49.96V57H84.0588V50.136C84.0588 48.8307 83.7288 47.8333 83.0688 47.144C82.4234 46.4547 81.5361 46.11 80.4068 46.11C79.2481 46.11 78.3241 46.4767 77.6348 47.21C76.9454 47.9433 76.6008 49.0213 76.6008 50.444V57H75.0608V40.72H76.6008V47.034C76.9821 46.3153 77.5394 45.758 78.2728 45.362C79.0208 44.966 79.8568 44.768 80.7808 44.768ZM94.2407 57.176C93.1113 57.176 92.092 56.9267 91.1827 56.428C90.288 55.9147 89.5767 55.196 89.0487 54.272C88.5353 53.3333 88.2787 52.2407 88.2787 50.994C88.2787 49.7473 88.5427 48.662 89.0707 47.738C89.5987 46.7993 90.3173 46.0807 91.2267 45.582C92.136 45.0687 93.1553 44.812 94.2847 44.812C95.414 44.812 96.4333 45.0687 97.3427 45.582C98.2667 46.0807 98.9853 46.7993 99.4987 47.738C100.027 48.662 100.291 49.7473 100.291 50.994C100.291 52.226 100.027 53.3113 99.4987 54.25C98.9707 55.1887 98.2447 55.9147 97.3207 56.428C96.3967 56.9267 95.37 57.176 94.2407 57.176ZM94.2407 55.834C95.0327 55.834 95.766 55.658 96.4407 55.306C97.1153 54.9393 97.658 54.3967 98.0687 53.678C98.494 52.9447 98.7067 52.05 98.7067 50.994C98.7067 49.938 98.5013 49.0507 98.0907 48.332C97.68 47.5987 97.1373 47.056 96.4627 46.704C95.788 46.3373 95.0547 46.154 94.2627 46.154C93.4707 46.154 92.7373 46.3373 92.0627 46.704C91.388 47.056 90.8453 47.5987 90.4347 48.332C90.0387 49.0507 89.8407 49.938 89.8407 50.994C89.8407 52.05 90.0387 52.9447 90.4347 53.678C90.8453 54.3967 91.3807 54.9393 92.0407 55.306C92.7153 55.658 93.4487 55.834 94.2407 55.834ZM104.638 47.122C104.975 46.374 105.489 45.7947 106.178 45.384C106.882 44.9733 107.74 44.768 108.752 44.768V46.374H108.334C107.219 46.374 106.325 46.6747 105.65 47.276C104.975 47.8773 104.638 48.882 104.638 50.29V57H103.098V44.988H104.638V47.122ZM110.365 50.972C110.365 49.74 110.607 48.662 111.091 47.738C111.589 46.7993 112.271 46.0807 113.137 45.582C114.017 45.0687 115.007 44.812 116.107 44.812C117.251 44.812 118.233 45.076 119.055 45.604C119.891 46.132 120.492 46.8067 120.859 47.628V44.988H122.399V57H120.859V54.338C120.477 55.1593 119.869 55.8413 119.033 56.384C118.211 56.912 117.229 57.176 116.085 57.176C114.999 57.176 114.017 56.9193 113.137 56.406C112.271 55.8927 111.589 55.1667 111.091 54.228C110.607 53.2893 110.365 52.204 110.365 50.972ZM120.859 50.994C120.859 50.026 120.661 49.1753 120.265 48.442C119.869 47.7087 119.326 47.144 118.637 46.748C117.962 46.352 117.214 46.154 116.393 46.154C115.542 46.154 114.779 46.3447 114.105 46.726C113.43 47.1073 112.895 47.6647 112.499 48.398C112.117 49.1167 111.927 49.9747 111.927 50.972C111.927 51.9547 112.117 52.82 112.499 53.568C112.895 54.3013 113.43 54.866 114.105 55.262C114.779 55.6433 115.542 55.834 116.393 55.834C117.214 55.834 117.962 55.636 118.637 55.24C119.326 54.844 119.869 54.2793 120.265 53.546C120.661 52.8127 120.859 51.962 120.859 50.994ZM133.469 47.628C133.851 46.8213 134.452 46.154 135.273 45.626C136.109 45.0833 137.099 44.812 138.243 44.812C139.329 44.812 140.304 45.0687 141.169 45.582C142.049 46.0807 142.731 46.7993 143.215 47.738C143.714 48.662 143.963 49.74 143.963 50.972C143.963 52.204 143.714 53.2893 143.215 54.228C142.731 55.1667 142.049 55.8927 141.169 56.406C140.304 56.9193 139.329 57.176 138.243 57.176C137.114 57.176 136.131 56.912 135.295 56.384C134.459 55.8413 133.851 55.1667 133.469 54.36V62.676H131.951V44.988H133.469V47.628ZM142.401 50.972C142.401 49.9747 142.203 49.1167 141.807 48.398C141.426 47.6647 140.898 47.1073 140.223 46.726C139.549 46.3447 138.786 46.154 137.935 46.154C137.114 46.154 136.359 46.352 135.669 46.748C134.995 47.144 134.459 47.7087 134.063 48.442C133.667 49.1753 133.469 50.026 133.469 50.994C133.469 51.962 133.667 52.8127 134.063 53.546C134.459 54.2793 134.995 54.844 135.669 55.24C136.359 55.636 137.114 55.834 137.935 55.834C138.786 55.834 139.549 55.6433 140.223 55.262C140.898 54.866 141.426 54.3013 141.807 53.568C142.203 52.82 142.401 51.9547 142.401 50.972ZM152.055 57.176C150.926 57.176 149.906 56.9267 148.997 56.428C148.102 55.9147 147.391 55.196 146.863 54.272C146.35 53.3333 146.093 52.2407 146.093 50.994C146.093 49.7473 146.357 48.662 146.885 47.738C147.413 46.7993 148.132 46.0807 149.041 45.582C149.95 45.0687 150.97 44.812 152.099 44.812C153.228 44.812 154.248 45.0687 155.157 45.582C156.081 46.0807 156.8 46.7993 157.313 47.738C157.841 48.662 158.105 49.7473 158.105 50.994C158.105 52.226 157.841 53.3113 157.313 54.25C156.785 55.1887 156.059 55.9147 155.135 56.428C154.211 56.9267 153.184 57.176 152.055 57.176ZM152.055 55.834C152.847 55.834 153.58 55.658 154.255 55.306C154.93 54.9393 155.472 54.3967 155.883 53.678C156.308 52.9447 156.521 52.05 156.521 50.994C156.521 49.938 156.316 49.0507 155.905 48.332C155.494 47.5987 154.952 47.056 154.277 46.704C153.602 46.3373 152.869 46.154 152.077 46.154C151.285 46.154 150.552 46.3373 149.877 46.704C149.202 47.056 148.66 47.5987 148.249 48.332C147.853 49.0507 147.655 49.938 147.655 50.994C147.655 52.05 147.853 52.9447 148.249 53.678C148.66 54.3967 149.195 54.9393 149.855 55.306C150.53 55.658 151.263 55.834 152.055 55.834ZM160.208 50.972C160.208 49.74 160.458 48.662 160.956 47.738C161.455 46.7993 162.137 46.0807 163.002 45.582C163.882 45.0687 164.872 44.812 165.972 44.812C167.028 44.812 167.982 45.0687 168.832 45.582C169.683 46.0953 170.306 46.7627 170.702 47.584V40.72H172.242V57H170.702V54.316C170.336 55.152 169.734 55.8413 168.898 56.384C168.062 56.912 167.08 57.176 165.95 57.176C164.85 57.176 163.86 56.9193 162.98 56.406C162.115 55.8927 161.433 55.1667 160.934 54.228C160.45 53.2893 160.208 52.204 160.208 50.972ZM170.702 50.994C170.702 50.026 170.504 49.1753 170.108 48.442C169.712 47.7087 169.17 47.144 168.48 46.748C167.806 46.352 167.058 46.154 166.236 46.154C165.386 46.154 164.623 46.3447 163.948 46.726C163.274 47.1073 162.738 47.6647 162.342 48.398C161.961 49.1167 161.77 49.9747 161.77 50.972C161.77 51.9547 161.961 52.82 162.342 53.568C162.738 54.3013 163.274 54.866 163.948 55.262C164.623 55.6433 165.386 55.834 166.236 55.834C167.058 55.834 167.806 55.636 168.48 55.24C169.17 54.844 169.712 54.2793 170.108 53.546C170.504 52.8127 170.702 51.962 170.702 50.994ZM186.626 50.378C186.626 50.906 186.611 51.3093 186.582 51.588H176.616C176.66 52.4973 176.88 53.2747 177.276 53.92C177.672 54.5653 178.193 55.0567 178.838 55.394C179.483 55.7167 180.187 55.878 180.95 55.878C181.947 55.878 182.783 55.636 183.458 55.152C184.147 54.668 184.602 54.0153 184.822 53.194H186.45C186.157 54.3673 185.526 55.328 184.558 56.076C183.605 56.8093 182.402 57.176 180.95 57.176C179.821 57.176 178.809 56.9267 177.914 56.428C177.019 55.9147 176.315 55.196 175.802 54.272C175.303 53.3333 175.054 52.2407 175.054 50.994C175.054 49.7473 175.303 48.6547 175.802 47.716C176.301 46.7773 176.997 46.0587 177.892 45.56C178.787 45.0613 179.806 44.812 180.95 44.812C182.094 44.812 183.091 45.0613 183.942 45.56C184.807 46.0587 185.467 46.7333 185.922 47.584C186.391 48.42 186.626 49.3513 186.626 50.378ZM185.064 50.334C185.079 49.4393 184.895 48.6767 184.514 48.046C184.147 47.4153 183.641 46.9387 182.996 46.616C182.351 46.2933 181.647 46.132 180.884 46.132C179.74 46.132 178.765 46.4987 177.958 47.232C177.151 47.9653 176.704 48.9993 176.616 50.334H185.064ZM193.58 57.176C192.201 57.176 191.072 56.8607 190.192 56.23C189.326 55.5847 188.842 54.712 188.74 53.612H190.324C190.397 54.2867 190.712 54.8367 191.27 55.262C191.842 55.6727 192.604 55.878 193.558 55.878C194.394 55.878 195.046 55.68 195.516 55.284C196 54.888 196.242 54.3967 196.242 53.81C196.242 53.3993 196.11 53.062 195.846 52.798C195.582 52.534 195.244 52.3287 194.834 52.182C194.438 52.0207 193.895 51.852 193.206 51.676C192.311 51.4413 191.585 51.2067 191.028 50.972C190.47 50.7373 189.994 50.3927 189.598 49.938C189.216 49.4687 189.026 48.8453 189.026 48.068C189.026 47.4813 189.202 46.9387 189.554 46.44C189.906 45.9413 190.404 45.5453 191.05 45.252C191.695 44.9587 192.428 44.812 193.25 44.812C194.54 44.812 195.582 45.142 196.374 45.802C197.166 46.4473 197.591 47.342 197.65 48.486H196.11C196.066 47.782 195.787 47.2173 195.274 46.792C194.775 46.352 194.086 46.132 193.206 46.132C192.428 46.132 191.798 46.3153 191.314 46.682C190.83 47.0487 190.588 47.5033 190.588 48.046C190.588 48.5153 190.727 48.904 191.006 49.212C191.299 49.5053 191.658 49.74 192.084 49.916C192.509 50.0773 193.081 50.2607 193.8 50.466C194.665 50.7007 195.354 50.928 195.868 51.148C196.381 51.368 196.821 51.6907 197.188 52.116C197.554 52.5413 197.745 53.106 197.76 53.81C197.76 54.4553 197.584 55.0347 197.232 55.548C196.88 56.0467 196.388 56.4427 195.758 56.736C195.127 57.0293 194.401 57.176 193.58 57.176ZM42.53 70.722C42.222 70.722 41.958 70.612 41.738 70.392C41.518 70.172 41.408 69.9007 41.408 69.578C41.408 69.2553 41.518 68.9913 41.738 68.786C41.958 68.566 42.222 68.456 42.53 68.456C42.838 68.456 43.102 68.566 43.322 68.786C43.542 68.9913 43.652 69.2553 43.652 69.578C43.652 69.9007 43.542 70.172 43.322 70.392C43.102 70.612 42.838 70.722 42.53 70.722ZM43.3 72.988V85H41.76V72.988H43.3ZM52.4193 72.768C53.8567 72.768 55.03 73.2153 55.9393 74.11C56.8487 74.99 57.3033 76.2733 57.3033 77.96V85H55.7853V78.136C55.7853 76.8307 55.4553 75.8333 54.7953 75.144C54.15 74.4547 53.2627 74.11 52.1333 74.11C50.9747 74.11 50.0507 74.4767 49.3613 75.21C48.672 75.9433 48.3273 77.0213 48.3273 78.444V85H46.7873V72.988H48.3273V75.034C48.7087 74.3007 49.2587 73.7433 49.9773 73.362C50.696 72.966 51.51 72.768 52.4193 72.768ZM62.7112 74.286V81.744C62.7112 82.4773 62.8506 82.9833 63.1292 83.262C63.4079 83.5407 63.8992 83.68 64.6032 83.68H66.0112V85H64.3612C63.2759 85 62.4692 84.7507 61.9412 84.252C61.4132 83.7387 61.1492 82.9027 61.1492 81.744V74.286H59.4772V72.988H61.1492V69.974H62.7112V72.988H66.0112V74.286H62.7112ZM79.419 78.378C79.419 78.906 79.4043 79.3093 79.375 79.588H69.409C69.453 80.4973 69.673 81.2747 70.069 81.92C70.465 82.5653 70.9857 83.0567 71.631 83.394C72.2763 83.7167 72.9803 83.878 73.743 83.878C74.7403 83.878 75.5763 83.636 76.251 83.152C76.9403 82.668 77.395 82.0153 77.615 81.194H79.243C78.9497 82.3673 78.319 83.328 77.351 84.076C76.3977 84.8093 75.195 85.176 73.743 85.176C72.6137 85.176 71.6017 84.9267 70.707 84.428C69.8123 83.9147 69.1083 83.196 68.595 82.272C68.0963 81.3333 67.847 80.2407 67.847 78.994C67.847 77.7473 68.0963 76.6547 68.595 75.716C69.0937 74.7773 69.7903 74.0587 70.685 73.56C71.5797 73.0613 72.599 72.812 73.743 72.812C74.887 72.812 75.8843 73.0613 76.735 73.56C77.6003 74.0587 78.2603 74.7333 78.715 75.584C79.1843 76.42 79.419 77.3513 79.419 78.378ZM77.857 78.334C77.8717 77.4393 77.6883 76.6767 77.307 76.046C76.9403 75.4153 76.4343 74.9387 75.789 74.616C75.1437 74.2933 74.4397 74.132 73.677 74.132C72.533 74.132 71.5577 74.4987 70.751 75.232C69.9443 75.9653 69.497 76.9993 69.409 78.334H77.857ZM87.2746 72.812C88.4039 72.812 89.3866 73.076 90.2226 73.604C91.0586 74.132 91.6599 74.7993 92.0266 75.606V72.988H93.5666V85.308C93.5666 86.408 93.3246 87.3833 92.8406 88.234C92.3712 89.0847 91.7112 89.7373 90.8606 90.192C90.0099 90.6613 89.0419 90.896 87.9566 90.896C86.4166 90.896 85.1332 90.5293 84.1066 89.796C83.0946 89.0627 82.4639 88.0653 82.2146 86.804H83.7326C83.9966 87.64 84.4952 88.3073 85.2286 88.806C85.9766 89.3047 86.8859 89.554 87.9566 89.554C88.7339 89.554 89.4306 89.3853 90.0466 89.048C90.6626 88.7253 91.1466 88.2413 91.4986 87.596C91.8506 86.9507 92.0266 86.188 92.0266 85.308V82.338C91.6452 83.1593 91.0366 83.8413 90.2006 84.384C89.3792 84.912 88.4039 85.176 87.2746 85.176C86.1746 85.176 85.1846 84.9193 84.3046 84.406C83.4392 83.8927 82.7572 83.1667 82.2586 82.228C81.7746 81.2893 81.5326 80.204 81.5326 78.972C81.5326 77.74 81.7746 76.662 82.2586 75.738C82.7572 74.7993 83.4392 74.0807 84.3046 73.582C85.1846 73.0687 86.1746 72.812 87.2746 72.812ZM92.0266 78.994C92.0266 78.026 91.8286 77.1753 91.4326 76.442C91.0366 75.7087 90.4939 75.144 89.8046 74.748C89.1299 74.352 88.3819 74.154 87.5606 74.154C86.7099 74.154 85.9472 74.3447 85.2726 74.726C84.5979 75.1073 84.0626 75.6647 83.6666 76.398C83.2852 77.1167 83.0946 77.9747 83.0946 78.972C83.0946 79.9547 83.2852 80.82 83.6666 81.568C84.0626 82.3013 84.5979 82.866 85.2726 83.262C85.9472 83.6433 86.7099 83.834 87.5606 83.834C88.3819 83.834 89.1299 83.636 89.8046 83.24C90.4939 82.844 91.0366 82.2793 91.4326 81.546C91.8286 80.8127 92.0266 79.962 92.0266 78.994ZM98.6223 75.122C98.9596 74.374 99.4729 73.7947 100.162 73.384C100.866 72.9733 101.724 72.768 102.736 72.768V74.374H102.318C101.204 74.374 100.309 74.6747 99.6343 75.276C98.9596 75.8773 98.6223 76.882 98.6223 78.29V85H97.0823V72.988H98.6223V75.122ZM104.349 78.972C104.349 77.74 104.591 76.662 105.075 75.738C105.574 74.7993 106.256 74.0807 107.121 73.582C108.001 73.0687 108.991 72.812 110.091 72.812C111.235 72.812 112.218 73.076 113.039 73.604C113.875 74.132 114.476 74.8067 114.843 75.628V72.988H116.383V85H114.843V82.338C114.462 83.1593 113.853 83.8413 113.017 84.384C112.196 84.912 111.213 85.176 110.069 85.176C108.984 85.176 108.001 84.9193 107.121 84.406C106.256 83.8927 105.574 83.1667 105.075 82.228C104.591 81.2893 104.349 80.204 104.349 78.972ZM114.843 78.994C114.843 78.026 114.645 77.1753 114.249 76.442C113.853 75.7087 113.31 75.144 112.621 74.748C111.946 74.352 111.198 74.154 110.377 74.154C109.526 74.154 108.764 74.3447 108.089 74.726C107.414 75.1073 106.879 75.6647 106.483 76.398C106.102 77.1167 105.911 77.9747 105.911 78.972C105.911 79.9547 106.102 80.82 106.483 81.568C106.879 82.3013 107.414 82.866 108.089 83.262C108.764 83.6433 109.526 83.834 110.377 83.834C111.198 83.834 111.946 83.636 112.621 83.24C113.31 82.844 113.853 82.2793 114.249 81.546C114.645 80.8127 114.843 79.962 114.843 78.994ZM121.439 75.122C121.776 74.374 122.289 73.7947 122.979 73.384C123.683 72.9733 124.541 72.768 125.553 72.768V74.374H125.135C124.02 74.374 123.125 74.6747 122.451 75.276C121.776 75.8773 121.439 76.882 121.439 78.29V85H119.899V72.988H121.439V75.122ZM133.202 78.972C133.202 77.74 133.444 76.662 133.928 75.738C134.427 74.7993 135.109 74.0807 135.974 73.582C136.854 73.0687 137.844 72.812 138.944 72.812C140.088 72.812 141.071 73.076 141.892 73.604C142.728 74.132 143.33 74.8067 143.696 75.628V72.988H145.236V85H143.696V82.338C143.315 83.1593 142.706 83.8413 141.87 84.384C141.049 84.912 140.066 85.176 138.922 85.176C137.837 85.176 136.854 84.9193 135.974 84.406C135.109 83.8927 134.427 83.1667 133.928 82.228C133.444 81.2893 133.202 80.204 133.202 78.972ZM143.696 78.994C143.696 78.026 143.498 77.1753 143.102 76.442C142.706 75.7087 142.164 75.144 141.474 74.748C140.8 74.352 140.052 74.154 139.23 74.154C138.38 74.154 137.617 74.3447 136.942 74.726C136.268 75.1073 135.732 75.6647 135.336 76.398C134.955 77.1167 134.764 77.9747 134.764 78.972C134.764 79.9547 134.955 80.82 135.336 81.568C135.732 82.3013 136.268 82.866 136.942 83.262C137.617 83.6433 138.38 83.834 139.23 83.834C140.052 83.834 140.8 83.636 141.474 83.24C142.164 82.844 142.706 82.2793 143.102 81.546C143.498 80.8127 143.696 79.962 143.696 78.994ZM161.983 77.058C162.849 77.2193 163.582 77.6593 164.183 78.378C164.785 79.0967 165.085 79.9327 165.085 80.886C165.085 81.6633 164.887 82.3673 164.491 82.998C164.11 83.614 163.545 84.1053 162.797 84.472C162.049 84.824 161.155 85 160.113 85H154.789V69.622H159.959C161.514 69.622 162.695 69.9813 163.501 70.7C164.323 71.4187 164.733 72.35 164.733 73.494C164.733 74.4473 164.477 75.2247 163.963 75.826C163.45 76.4127 162.79 76.8233 161.983 77.058ZM156.329 76.42H159.915C160.957 76.42 161.756 76.178 162.313 75.694C162.885 75.1953 163.171 74.5133 163.171 73.648C163.171 72.7973 162.885 72.13 162.313 71.646C161.756 71.162 160.935 70.92 159.849 70.92H156.329V76.42ZM160.003 83.702C161.118 83.702 161.983 83.438 162.599 82.91C163.23 82.382 163.545 81.656 163.545 80.732C163.545 79.808 163.215 79.0747 162.555 78.532C161.91 77.9747 161.037 77.696 159.937 77.696H156.329V83.702H160.003ZM178.322 72.988V85H176.782V82.888C176.43 83.636 175.888 84.208 175.154 84.604C174.421 85 173.6 85.198 172.69 85.198C171.253 85.198 170.08 84.758 169.17 83.878C168.261 82.9833 167.806 81.6927 167.806 80.006V72.988H169.324V79.83C169.324 81.1353 169.647 82.1327 170.292 82.822C170.952 83.5113 171.847 83.856 172.976 83.856C174.135 83.856 175.059 83.4893 175.748 82.756C176.438 82.0227 176.782 80.9447 176.782 79.522V72.988H178.322ZM181.134 78.972C181.134 77.74 181.383 76.662 181.882 75.738C182.381 74.7993 183.063 74.0807 183.928 73.582C184.808 73.0687 185.798 72.812 186.898 72.812C187.954 72.812 188.907 73.0687 189.758 73.582C190.609 74.0953 191.232 74.7627 191.628 75.584V68.72H193.168V85H191.628V82.316C191.261 83.152 190.66 83.8413 189.824 84.384C188.988 84.912 188.005 85.176 186.876 85.176C185.776 85.176 184.786 84.9193 183.906 84.406C183.041 83.8927 182.359 83.1667 181.86 82.228C181.376 81.2893 181.134 80.204 181.134 78.972ZM191.628 78.994C191.628 78.026 191.43 77.1753 191.034 76.442C190.638 75.7087 190.095 75.144 189.406 74.748C188.731 74.352 187.983 74.154 187.162 74.154C186.311 74.154 185.549 74.3447 184.874 74.726C184.199 75.1073 183.664 75.6647 183.268 76.398C182.887 77.1167 182.696 77.9747 182.696 78.972C182.696 79.9547 182.887 80.82 183.268 81.568C183.664 82.3013 184.199 82.866 184.874 83.262C185.549 83.6433 186.311 83.834 187.162 83.834C187.983 83.834 188.731 83.636 189.406 83.24C190.095 82.844 190.638 82.2793 191.034 81.546C191.43 80.8127 191.628 79.962 191.628 78.994ZM206.584 72.988L199.456 90.654H197.85L200.182 84.934L195.254 72.988H196.948L201.04 83.24L205 72.988H206.584ZM214.005 78.972C214.005 77.74 214.247 76.662 214.731 75.738C215.23 74.7993 215.912 74.0807 216.777 73.582C217.657 73.0687 218.647 72.812 219.747 72.812C220.891 72.812 221.874 73.076 222.695 73.604C223.531 74.132 224.133 74.8067 224.499 75.628V72.988H226.039V85H224.499V82.338C224.118 83.1593 223.509 83.8413 222.673 84.384C221.852 84.912 220.869 85.176 219.725 85.176C218.64 85.176 217.657 84.9193 216.777 84.406C215.912 83.8927 215.23 83.1667 214.731 82.228C214.247 81.2893 214.005 80.204 214.005 78.972ZM224.499 78.994C224.499 78.026 224.301 77.1753 223.905 76.442C223.509 75.7087 222.967 75.144 222.277 74.748C221.603 74.352 220.855 74.154 220.033 74.154C219.183 74.154 218.42 74.3447 217.745 74.726C217.071 75.1073 216.535 75.6647 216.139 76.398C215.758 77.1167 215.567 77.9747 215.567 78.972C215.567 79.9547 215.758 80.82 216.139 81.568C216.535 82.3013 217.071 82.866 217.745 83.262C218.42 83.6433 219.183 83.834 220.033 83.834C220.855 83.834 221.603 83.636 222.277 83.24C222.967 82.844 223.509 82.2793 223.905 81.546C224.301 80.8127 224.499 79.962 224.499 78.994ZM60.416 97.622L56.06 113H54.344L50.472 99.888L46.512 113L44.84 113.022L40.572 97.622H42.222L45.742 111.108L49.68 97.622H51.396L55.224 111.108L58.766 97.622H60.416ZM68.4917 100.768C69.4011 100.768 70.2151 100.959 70.9337 101.34C71.6671 101.721 72.2391 102.308 72.6497 103.1C73.0751 103.877 73.2877 104.831 73.2877 105.96V113H71.7697V106.136C71.7697 104.831 71.4397 103.833 70.7797 103.144C70.1344 102.455 69.2471 102.11 68.1177 102.11C66.9591 102.11 66.0351 102.477 65.3457 103.21C64.6564 103.943 64.3117 105.021 64.3117 106.444V113H62.7717V96.72H64.3117V103.034C64.6931 102.315 65.2504 101.758 65.9837 101.362C66.7317 100.966 67.5677 100.768 68.4917 100.768ZM75.9896 106.972C75.9896 105.74 76.2316 104.662 76.7156 103.738C77.2143 102.799 77.8963 102.081 78.7616 101.582C79.6416 101.069 80.6316 100.812 81.7316 100.812C82.8756 100.812 83.8583 101.076 84.6796 101.604C85.5156 102.132 86.1169 102.807 86.4836 103.628V100.988H88.0236V113H86.4836V110.338C86.1023 111.159 85.4936 111.841 84.6576 112.384C83.8363 112.912 82.8536 113.176 81.7096 113.176C80.6243 113.176 79.6416 112.919 78.7616 112.406C77.8963 111.893 77.2143 111.167 76.7156 110.228C76.2316 109.289 75.9896 108.204 75.9896 106.972ZM86.4836 106.994C86.4836 106.026 86.2856 105.175 85.8896 104.442C85.4936 103.709 84.9509 103.144 84.2616 102.748C83.5869 102.352 82.8389 102.154 82.0176 102.154C81.1669 102.154 80.4043 102.345 79.7296 102.726C79.0549 103.107 78.5196 103.665 78.1236 104.398C77.7423 105.117 77.5516 105.975 77.5516 106.972C77.5516 107.955 77.7423 108.82 78.1236 109.568C78.5196 110.301 79.0549 110.866 79.7296 111.262C80.4043 111.643 81.1669 111.834 82.0176 111.834C82.8389 111.834 83.5869 111.636 84.2616 111.24C84.9509 110.844 85.4936 110.279 85.8896 109.546C86.2856 108.813 86.4836 107.962 86.4836 106.994ZM93.5413 102.286V109.744C93.5413 110.477 93.6806 110.983 93.9593 111.262C94.238 111.541 94.7293 111.68 95.4333 111.68H96.8413V113H95.1913C94.106 113 93.2993 112.751 92.7713 112.252C92.2433 111.739 91.9793 110.903 91.9793 109.744V102.286H90.3073V100.988H91.9793V97.974H93.5413V100.988H96.8413V102.286H93.5413ZM103.517 113.176C102.138 113.176 101.009 112.861 100.129 112.23C99.2638 111.585 98.7798 110.712 98.6771 109.612H100.261C100.334 110.287 100.65 110.837 101.207 111.262C101.779 111.673 102.542 111.878 103.495 111.878C104.331 111.878 104.984 111.68 105.453 111.284C105.937 110.888 106.179 110.397 106.179 109.81C106.179 109.399 106.047 109.062 105.783 108.798C105.519 108.534 105.182 108.329 104.771 108.182C104.375 108.021 103.832 107.852 103.143 107.676C102.248 107.441 101.522 107.207 100.965 106.972C100.408 106.737 99.9311 106.393 99.5351 105.938C99.1538 105.469 98.9631 104.845 98.9631 104.068C98.9631 103.481 99.1391 102.939 99.4911 102.44C99.8431 101.941 100.342 101.545 100.987 101.252C101.632 100.959 102.366 100.812 103.187 100.812C104.478 100.812 105.519 101.142 106.311 101.802C107.103 102.447 107.528 103.342 107.587 104.486H106.047C106.003 103.782 105.724 103.217 105.211 102.792C104.712 102.352 104.023 102.132 103.143 102.132C102.366 102.132 101.735 102.315 101.251 102.682C100.767 103.049 100.525 103.503 100.525 104.046C100.525 104.515 100.664 104.904 100.943 105.212C101.236 105.505 101.596 105.74 102.021 105.916C102.446 106.077 103.018 106.261 103.737 106.466C104.602 106.701 105.292 106.928 105.805 107.148C106.318 107.368 106.758 107.691 107.125 108.116C107.492 108.541 107.682 109.106 107.697 109.81C107.697 110.455 107.521 111.035 107.169 111.548C106.817 112.047 106.326 112.443 105.695 112.736C105.064 113.029 104.338 113.176 103.517 113.176ZM119.506 109.348H112.51L111.168 113H109.54L115.15 97.82H116.888L122.476 113H120.848L119.506 109.348ZM119.044 108.072L116.008 99.756L112.972 108.072H119.044ZM126.466 103.628C126.847 102.821 127.448 102.154 128.27 101.626C129.106 101.083 130.096 100.812 131.24 100.812C132.325 100.812 133.3 101.069 134.166 101.582C135.046 102.081 135.728 102.799 136.212 103.738C136.71 104.662 136.96 105.74 136.96 106.972C136.96 108.204 136.71 109.289 136.212 110.228C135.728 111.167 135.046 111.893 134.166 112.406C133.3 112.919 132.325 113.176 131.24 113.176C130.11 113.176 129.128 112.912 128.292 112.384C127.456 111.841 126.847 111.167 126.466 110.36V118.676H124.948V100.988H126.466V103.628ZM135.398 106.972C135.398 105.975 135.2 105.117 134.803 104.398C134.422 103.665 133.894 103.107 133.22 102.726C132.545 102.345 131.782 102.154 130.932 102.154C130.11 102.154 129.355 102.352 128.666 102.748C127.991 103.144 127.456 103.709 127.06 104.442C126.664 105.175 126.466 106.026 126.466 106.994C126.466 107.962 126.664 108.813 127.06 109.546C127.456 110.279 127.991 110.844 128.666 111.24C129.355 111.636 130.11 111.834 130.932 111.834C131.782 111.834 132.545 111.643 133.22 111.262C133.894 110.866 134.422 110.301 134.803 109.568C135.2 108.82 135.398 107.955 135.398 106.972ZM141.311 103.628C141.693 102.821 142.294 102.154 143.115 101.626C143.951 101.083 144.941 100.812 146.085 100.812C147.171 100.812 148.146 101.069 149.011 101.582C149.891 102.081 150.573 102.799 151.057 103.738C151.556 104.662 151.805 105.74 151.805 106.972C151.805 108.204 151.556 109.289 151.057 110.228C150.573 111.167 149.891 111.893 149.011 112.406C148.146 112.919 147.171 113.176 146.085 113.176C144.956 113.176 143.973 112.912 143.137 112.384C142.301 111.841 141.693 111.167 141.311 110.36V118.676H139.793V100.988H141.311V103.628ZM150.243 106.972C150.243 105.975 150.045 105.117 149.649 104.398C149.268 103.665 148.74 103.107 148.065 102.726C147.391 102.345 146.628 102.154 145.777 102.154C144.956 102.154 144.201 102.352 143.511 102.748C142.837 103.144 142.301 103.709 141.905 104.442C141.509 105.175 141.311 106.026 141.311 106.994C141.311 107.962 141.509 108.813 141.905 109.546C142.301 110.279 142.837 110.844 143.511 111.24C144.201 111.636 144.956 111.834 145.777 111.834C146.628 111.834 147.391 111.643 148.065 111.262C148.74 110.866 149.268 110.301 149.649 109.568C150.045 108.82 150.243 107.955 150.243 106.972Z" fill="black"/>
<path d="M37 157C37 144.85 46.8497 135 59 135H219C231.15 135 241 144.85 241 157V175H37V157Z" fill="#0D6554"/>
<rect x="55" y="370" width="141" height="24" rx="12" fill="#FEFFFF"/>
<path d="M175.833 379.333V385.667C175.833 386.716 176.272 387.723 177.053 388.466C177.835 389.208 178.895 389.625 180 389.625C181.105 389.625 182.165 389.208 182.946 388.466C183.727 387.723 184.166 386.716 184.166 385.667V378.146C184.166 377.411 183.859 376.706 183.312 376.187C182.765 375.667 182.023 375.375 181.25 375.375C180.476 375.375 179.734 375.667 179.187 376.187C178.64 376.706 178.333 377.411 178.333 378.146V384.875C178.333 385.295 178.509 385.698 178.821 385.995C179.134 386.292 179.558 386.458 180 386.458C180.442 386.458 180.866 386.292 181.178 385.995C181.491 385.698 181.666 385.295 181.666 384.875V379.333" stroke="black" stroke-width="1.66667" stroke-linecap="round" stroke-linejoin="round"/>
<path d="M82 301C82 294.373 87.3726 289 94 289H212C218.627 289 224 294.373 224 301V323H94C87.3726 323 82 317.627 82 311V301Z" fill="white"/>
<path d="M98.99 297.01V304H98.29V300.73H94.5V304H93.8V297.01H94.5V300.15H98.29V297.01H98.99ZM102.977 304.08C102.464 304.08 102 303.967 101.587 303.74C101.18 303.507 100.857 303.18 100.617 302.76C100.384 302.333 100.267 301.837 100.267 301.27C100.267 300.703 100.387 300.21 100.627 299.79C100.867 299.363 101.194 299.037 101.607 298.81C102.02 298.577 102.484 298.46 102.997 298.46C103.51 298.46 103.974 298.577 104.387 298.81C104.807 299.037 105.134 299.363 105.367 299.79C105.607 300.21 105.727 300.703 105.727 301.27C105.727 301.83 105.607 302.323 105.367 302.75C105.127 303.177 104.797 303.507 104.377 303.74C103.957 303.967 103.49 304.08 102.977 304.08ZM102.977 303.47C103.337 303.47 103.67 303.39 103.977 303.23C104.284 303.063 104.53 302.817 104.717 302.49C104.91 302.157 105.007 301.75 105.007 301.27C105.007 300.79 104.914 300.387 104.727 300.06C104.54 299.727 104.294 299.48 103.987 299.32C103.68 299.153 103.347 299.07 102.987 299.07C102.627 299.07 102.294 299.153 101.987 299.32C101.68 299.48 101.434 299.727 101.247 300.06C101.067 300.387 100.977 300.79 100.977 301.27C100.977 301.75 101.067 302.157 101.247 302.49C101.434 302.817 101.677 303.063 101.977 303.23C102.284 303.39 102.617 303.47 102.977 303.47ZM107.703 296.6V304H107.003V296.6H107.703ZM108.968 301.26C108.968 300.7 109.078 300.21 109.298 299.79C109.525 299.363 109.835 299.037 110.228 298.81C110.628 298.577 111.078 298.46 111.578 298.46C112.098 298.46 112.545 298.58 112.918 298.82C113.298 299.06 113.572 299.367 113.738 299.74V298.54H114.438V304H113.738V302.79C113.565 303.163 113.288 303.473 112.908 303.72C112.535 303.96 112.088 304.08 111.568 304.08C111.075 304.08 110.628 303.963 110.228 303.73C109.835 303.497 109.525 303.167 109.298 302.74C109.078 302.313 108.968 301.82 108.968 301.26ZM113.738 301.27C113.738 300.83 113.648 300.443 113.468 300.11C113.288 299.777 113.042 299.52 112.728 299.34C112.422 299.16 112.082 299.07 111.708 299.07C111.322 299.07 110.975 299.157 110.668 299.33C110.362 299.503 110.118 299.757 109.938 300.09C109.765 300.417 109.678 300.807 109.678 301.26C109.678 301.707 109.765 302.1 109.938 302.44C110.118 302.773 110.362 303.03 110.668 303.21C110.975 303.383 111.322 303.47 111.708 303.47C112.082 303.47 112.422 303.38 112.728 303.2C113.042 303.02 113.288 302.763 113.468 302.43C113.648 302.097 113.738 301.71 113.738 301.27ZM116.976 297.01L116.886 302.15H116.296L116.216 297.01H116.976ZM116.626 304.05C116.48 304.05 116.356 304 116.256 303.9C116.163 303.8 116.116 303.677 116.116 303.53C116.116 303.383 116.163 303.263 116.256 303.17C116.356 303.07 116.48 303.02 116.626 303.02C116.766 303.02 116.883 303.07 116.976 303.17C117.076 303.263 117.126 303.383 117.126 303.53C117.126 303.677 117.076 303.8 116.976 303.9C116.883 304 116.766 304.05 116.626 304.05ZM123.434 304.08C122.807 304.08 122.294 303.937 121.894 303.65C121.501 303.357 121.281 302.96 121.234 302.46H121.954C121.987 302.767 122.131 303.017 122.384 303.21C122.644 303.397 122.991 303.49 123.424 303.49C123.804 303.49 124.101 303.4 124.314 303.22C124.534 303.04 124.644 302.817 124.644 302.55C124.644 302.363 124.584 302.21 124.464 302.09C124.344 301.97 124.191 301.877 124.004 301.81C123.824 301.737 123.577 301.66 123.264 301.58C122.857 301.473 122.527 301.367 122.274 301.26C122.021 301.153 121.804 300.997 121.624 300.79C121.451 300.577 121.364 300.293 121.364 299.94C121.364 299.673 121.444 299.427 121.604 299.2C121.764 298.973 121.991 298.793 122.284 298.66C122.577 298.527 122.911 298.46 123.284 298.46C123.871 298.46 124.344 298.61 124.704 298.91C125.064 299.203 125.257 299.61 125.284 300.13H124.584C124.564 299.81 124.437 299.553 124.204 299.36C123.977 299.16 123.664 299.06 123.264 299.06C122.911 299.06 122.624 299.143 122.404 299.31C122.184 299.477 122.074 299.683 122.074 299.93C122.074 300.143 122.137 300.32 122.264 300.46C122.397 300.593 122.561 300.7 122.754 300.78C122.947 300.853 123.207 300.937 123.534 301.03C123.927 301.137 124.241 301.24 124.474 301.34C124.707 301.44 124.907 301.587 125.074 301.78C125.241 301.973 125.327 302.23 125.334 302.55C125.334 302.843 125.254 303.107 125.094 303.34C124.934 303.567 124.711 303.747 124.424 303.88C124.137 304.013 123.807 304.08 123.434 304.08ZM129.042 304.08C128.528 304.08 128.065 303.967 127.652 303.74C127.245 303.507 126.922 303.18 126.682 302.76C126.448 302.333 126.332 301.837 126.332 301.27C126.332 300.703 126.452 300.21 126.692 299.79C126.932 299.363 127.258 299.037 127.672 298.81C128.085 298.577 128.548 298.46 129.062 298.46C129.575 298.46 130.038 298.577 130.452 298.81C130.872 299.037 131.198 299.363 131.432 299.79C131.672 300.21 131.792 300.703 131.792 301.27C131.792 301.83 131.672 302.323 131.432 302.75C131.192 303.177 130.862 303.507 130.442 303.74C130.022 303.967 129.555 304.08 129.042 304.08ZM129.042 303.47C129.402 303.47 129.735 303.39 130.042 303.23C130.348 303.063 130.595 302.817 130.782 302.49C130.975 302.157 131.072 301.75 131.072 301.27C131.072 300.79 130.978 300.387 130.792 300.06C130.605 299.727 130.358 299.48 130.052 299.32C129.745 299.153 129.412 299.07 129.052 299.07C128.692 299.07 128.358 299.153 128.052 299.32C127.745 299.48 127.498 299.727 127.312 300.06C127.132 300.387 127.042 300.79 127.042 301.27C127.042 301.75 127.132 302.157 127.312 302.49C127.498 302.817 127.742 303.063 128.042 303.23C128.348 303.39 128.682 303.47 129.042 303.47ZM137.568 298.54L134.328 306.57H133.598L134.658 303.97L132.418 298.54H133.188L135.048 303.2L136.848 298.54H137.568ZM144.531 300.39C144.924 300.463 145.258 300.663 145.531 300.99C145.804 301.317 145.941 301.697 145.941 302.13C145.941 302.483 145.851 302.803 145.671 303.09C145.498 303.37 145.241 303.593 144.901 303.76C144.561 303.92 144.154 304 143.681 304H141.261V297.01H143.611C144.318 297.01 144.854 297.173 145.221 297.5C145.594 297.827 145.781 298.25 145.781 298.77C145.781 299.203 145.664 299.557 145.431 299.83C145.198 300.097 144.898 300.283 144.531 300.39ZM141.961 300.1H143.591C144.064 300.1 144.428 299.99 144.681 299.77C144.941 299.543 145.071 299.233 145.071 298.84C145.071 298.453 144.941 298.15 144.681 297.93C144.428 297.71 144.054 297.6 143.561 297.6H141.961V300.1ZM143.631 303.41C144.138 303.41 144.531 303.29 144.811 303.05C145.098 302.81 145.241 302.48 145.241 302.06C145.241 301.64 145.091 301.307 144.791 301.06C144.498 300.807 144.101 300.68 143.601 300.68H141.961V303.41H143.631ZM151.958 298.54V304H151.258V303.04C151.098 303.38 150.851 303.64 150.518 303.82C150.184 304 149.811 304.09 149.398 304.09C148.744 304.09 148.211 303.89 147.798 303.49C147.384 303.083 147.178 302.497 147.178 301.73V298.54H147.868V301.65C147.868 302.243 148.014 302.697 148.308 303.01C148.608 303.323 149.014 303.48 149.528 303.48C150.054 303.48 150.474 303.313 150.788 302.98C151.101 302.647 151.258 302.157 151.258 301.51V298.54H151.958ZM153.236 301.26C153.236 300.7 153.349 300.21 153.576 299.79C153.803 299.363 154.113 299.037 154.506 298.81C154.906 298.577 155.356 298.46 155.856 298.46C156.336 298.46 156.769 298.577 157.156 298.81C157.543 299.043 157.826 299.347 158.006 299.72V296.6H158.706V304H158.006V302.78C157.839 303.16 157.566 303.473 157.186 303.72C156.806 303.96 156.359 304.08 155.846 304.08C155.346 304.08 154.896 303.963 154.496 303.73C154.103 303.497 153.793 303.167 153.566 302.74C153.346 302.313 153.236 301.82 153.236 301.26ZM158.006 301.27C158.006 300.83 157.916 300.443 157.736 300.11C157.556 299.777 157.309 299.52 156.996 299.34C156.689 299.16 156.349 299.07 155.976 299.07C155.589 299.07 155.243 299.157 154.936 299.33C154.629 299.503 154.386 299.757 154.206 300.09C154.033 300.417 153.946 300.807 153.946 301.26C153.946 301.707 154.033 302.1 154.206 302.44C154.386 302.773 154.629 303.03 154.936 303.21C155.243 303.383 155.589 303.47 155.976 303.47C156.349 303.47 156.689 303.38 156.996 303.2C157.309 303.02 157.556 302.763 157.736 302.43C157.916 302.097 158.006 301.71 158.006 301.27ZM159.984 301.26C159.984 300.7 160.097 300.21 160.324 299.79C160.551 299.363 160.861 299.037 161.254 298.81C161.654 298.577 162.104 298.46 162.604 298.46C163.084 298.46 163.517 298.577 163.904 298.81C164.291 299.043 164.574 299.347 164.754 299.72V296.6H165.454V304H164.754V302.78C164.587 303.16 164.314 303.473 163.934 303.72C163.554 303.96 163.107 304.08 162.594 304.08C162.094 304.08 161.644 303.963 161.244 303.73C160.851 303.497 160.541 303.167 160.314 302.74C160.094 302.313 159.984 301.82 159.984 301.26ZM164.754 301.27C164.754 300.83 164.664 300.443 164.484 300.11C164.304 299.777 164.057 299.52 163.744 299.34C163.437 299.16 163.097 299.07 162.724 299.07C162.337 299.07 161.991 299.157 161.684 299.33C161.377 299.503 161.134 299.757 160.954 300.09C160.781 300.417 160.694 300.807 160.694 301.26C160.694 301.707 160.781 302.1 160.954 302.44C161.134 302.773 161.377 303.03 161.684 303.21C161.991 303.383 162.337 303.47 162.724 303.47C163.097 303.47 163.437 303.38 163.744 303.2C164.057 303.02 164.304 302.763 164.484 302.43C164.664 302.097 164.754 301.71 164.754 301.27ZM171.552 298.54L168.312 306.57H167.582L168.642 303.97L166.402 298.54H167.172L169.032 303.2L170.832 298.54H171.552ZM173.141 302.84L172.101 305.46H171.621L172.361 302.84H173.141ZM181.914 300.99C181.914 301.23 181.907 301.413 181.894 301.54H177.364C177.384 301.953 177.484 302.307 177.664 302.6C177.844 302.893 178.08 303.117 178.374 303.27C178.667 303.417 178.987 303.49 179.334 303.49C179.787 303.49 180.167 303.38 180.474 303.16C180.787 302.94 180.994 302.643 181.094 302.27H181.834C181.7 302.803 181.414 303.24 180.974 303.58C180.54 303.913 179.994 304.08 179.334 304.08C178.82 304.08 178.36 303.967 177.954 303.74C177.547 303.507 177.227 303.18 176.994 302.76C176.767 302.333 176.654 301.837 176.654 301.27C176.654 300.703 176.767 300.207 176.994 299.78C177.22 299.353 177.537 299.027 177.944 298.8C178.35 298.573 178.814 298.46 179.334 298.46C179.854 298.46 180.307 298.573 180.694 298.8C181.087 299.027 181.387 299.333 181.594 299.72C181.807 300.1 181.914 300.523 181.914 300.99ZM181.204 300.97C181.21 300.563 181.127 300.217 180.954 299.93C180.787 299.643 180.557 299.427 180.264 299.28C179.97 299.133 179.65 299.06 179.304 299.06C178.784 299.06 178.34 299.227 177.974 299.56C177.607 299.893 177.404 300.363 177.364 300.97H181.204ZM185.075 304.08C184.448 304.08 183.935 303.937 183.535 303.65C183.141 303.357 182.921 302.96 182.875 302.46H183.595C183.628 302.767 183.771 303.017 184.025 303.21C184.285 303.397 184.631 303.49 185.065 303.49C185.445 303.49 185.741 303.4 185.955 303.22C186.175 303.04 186.285 302.817 186.285 302.55C186.285 302.363 186.225 302.21 186.105 302.09C185.985 301.97 185.831 301.877 185.645 301.81C185.465 301.737 185.218 301.66 184.905 301.58C184.498 301.473 184.168 301.367 183.915 301.26C183.661 301.153 183.445 300.997 183.265 300.79C183.091 300.577 183.005 300.293 183.005 299.94C183.005 299.673 183.085 299.427 183.245 299.2C183.405 298.973 183.631 298.793 183.925 298.66C184.218 298.527 184.551 298.46 184.925 298.46C185.511 298.46 185.985 298.61 186.345 298.91C186.705 299.203 186.898 299.61 186.925 300.13H186.225C186.205 299.81 186.078 299.553 185.845 299.36C185.618 299.16 185.305 299.06 184.905 299.06C184.551 299.06 184.265 299.143 184.045 299.31C183.825 299.477 183.715 299.683 183.715 299.93C183.715 300.143 183.778 300.32 183.905 300.46C184.038 300.593 184.201 300.7 184.395 300.78C184.588 300.853 184.848 300.937 185.175 301.03C185.568 301.137 185.881 301.24 186.115 301.34C186.348 301.44 186.548 301.587 186.715 301.78C186.881 301.973 186.968 302.23 186.975 302.55C186.975 302.843 186.895 303.107 186.735 303.34C186.575 303.567 186.351 303.747 186.065 303.88C185.778 304.013 185.448 304.08 185.075 304.08ZM189.202 299.13V302.52C189.202 302.853 189.266 303.083 189.392 303.21C189.519 303.337 189.742 303.4 190.062 303.4H190.702V304H189.952C189.459 304 189.092 303.887 188.852 303.66C188.612 303.427 188.492 303.047 188.492 302.52V299.13H187.732V298.54H188.492V297.17H189.202V298.54H190.702V299.13H189.202ZM194.247 304.08C193.733 304.08 193.27 303.967 192.857 303.74C192.45 303.507 192.127 303.18 191.887 302.76C191.653 302.333 191.537 301.837 191.537 301.27C191.537 300.703 191.657 300.21 191.897 299.79C192.137 299.363 192.463 299.037 192.877 298.81C193.29 298.577 193.753 298.46 194.267 298.46C194.78 298.46 195.243 298.577 195.657 298.81C196.077 299.037 196.403 299.363 196.637 299.79C196.877 300.21 196.997 300.703 196.997 301.27C196.997 301.83 196.877 302.323 196.637 302.75C196.397 303.177 196.067 303.507 195.647 303.74C195.227 303.967 194.76 304.08 194.247 304.08ZM194.247 303.47C194.607 303.47 194.94 303.39 195.247 303.23C195.553 303.063 195.8 302.817 195.987 302.49C196.18 302.157 196.277 301.75 196.277 301.27C196.277 300.79 196.183 300.387 195.997 300.06C195.81 299.727 195.563 299.48 195.257 299.32C194.95 299.153 194.617 299.07 194.257 299.07C193.897 299.07 193.563 299.153 193.257 299.32C192.95 299.48 192.703 299.727 192.517 300.06C192.337 300.387 192.247 300.79 192.247 301.27C192.247 301.75 192.337 302.157 192.517 302.49C192.703 302.817 192.947 303.063 193.247 303.23C193.553 303.39 193.887 303.47 194.247 303.47ZM202.773 298.54L199.533 306.57H198.803L199.863 303.97L197.623 298.54H198.393L200.253 303.2L202.053 298.54H202.773ZM94.49 312.74C94.6633 312.373 94.9367 312.07 95.31 311.83C95.69 311.583 96.14 311.46 96.66 311.46C97.1533 311.46 97.5967 311.577 97.99 311.81C98.39 312.037 98.7 312.363 98.92 312.79C99.1467 313.21 99.26 313.7 99.26 314.26C99.26 314.82 99.1467 315.313 98.92 315.74C98.7 316.167 98.39 316.497 97.99 316.73C97.5967 316.963 97.1533 317.08 96.66 317.08C96.1467 317.08 95.7 316.96 95.32 316.72C94.94 316.473 94.6633 316.167 94.49 315.8V319.58H93.8V311.54H94.49V312.74ZM98.55 314.26C98.55 313.807 98.46 313.417 98.28 313.09C98.1067 312.757 97.8667 312.503 97.56 312.33C97.2533 312.157 96.9067 312.07 96.52 312.07C96.1467 312.07 95.8033 312.16 95.49 312.34C95.1833 312.52 94.94 312.777 94.76 313.11C94.58 313.443 94.49 313.83 94.49 314.27C94.49 314.71 94.58 315.097 94.76 315.43C94.94 315.763 95.1833 316.02 95.49 316.2C95.8033 316.38 96.1467 316.47 96.52 316.47C96.9067 316.47 97.2533 316.383 97.56 316.21C97.8667 316.03 98.1067 315.773 98.28 315.44C98.46 315.1 98.55 314.707 98.55 314.26ZM100.228 314.26C100.228 313.7 100.338 313.21 100.558 312.79C100.785 312.363 101.095 312.037 101.488 311.81C101.888 311.577 102.338 311.46 102.838 311.46C103.358 311.46 103.805 311.58 104.178 311.82C104.558 312.06 104.831 312.367 104.998 312.74V311.54H105.698V317H104.998V315.79C104.825 316.163 104.548 316.473 104.168 316.72C103.795 316.96 103.348 317.08 102.828 317.08C102.335 317.08 101.888 316.963 101.488 316.73C101.095 316.497 100.785 316.167 100.558 315.74C100.338 315.313 100.228 314.82 100.228 314.26ZM104.998 314.27C104.998 313.83 104.908 313.443 104.728 313.11C104.548 312.777 104.301 312.52 103.988 312.34C103.681 312.16 103.341 312.07 102.968 312.07C102.581 312.07 102.235 312.157 101.928 312.33C101.621 312.503 101.378 312.757 101.198 313.09C101.025 313.417 100.938 313.807 100.938 314.26C100.938 314.707 101.025 315.1 101.198 315.44C101.378 315.773 101.621 316.03 101.928 316.21C102.235 316.383 102.581 316.47 102.968 316.47C103.341 316.47 103.681 316.38 103.988 316.2C104.301 316.02 104.548 315.763 104.728 315.43C104.908 315.097 104.998 314.71 104.998 314.27ZM107.996 312.51C108.149 312.17 108.383 311.907 108.696 311.72C109.016 311.533 109.406 311.44 109.866 311.44V312.17H109.676C109.169 312.17 108.763 312.307 108.456 312.58C108.149 312.853 107.996 313.31 107.996 313.95V317H107.296V311.54H107.996V312.51ZM110.599 314.26C110.599 313.7 110.709 313.21 110.929 312.79C111.156 312.363 111.466 312.037 111.859 311.81C112.259 311.577 112.709 311.46 113.209 311.46C113.729 311.46 114.176 311.58 114.549 311.82C114.929 312.06 115.202 312.367 115.369 312.74V311.54H116.069V317H115.369V315.79C115.196 316.163 114.919 316.473 114.539 316.72C114.166 316.96 113.719 317.08 113.199 317.08C112.706 317.08 112.259 316.963 111.859 316.73C111.466 316.497 111.156 316.167 110.929 315.74C110.709 315.313 110.599 314.82 110.599 314.26ZM115.369 314.27C115.369 313.83 115.279 313.443 115.099 313.11C114.919 312.777 114.672 312.52 114.359 312.34C114.052 312.16 113.712 312.07 113.339 312.07C112.952 312.07 112.606 312.157 112.299 312.33C111.992 312.503 111.749 312.757 111.569 313.09C111.396 313.417 111.309 313.807 111.309 314.26C111.309 314.707 111.396 315.1 111.569 315.44C111.749 315.773 111.992 316.03 112.299 316.21C112.606 316.383 112.952 316.47 113.339 316.47C113.712 316.47 114.052 316.38 114.359 316.2C114.672 316.02 114.919 315.763 115.099 315.43C115.279 315.097 115.369 314.71 115.369 314.27ZM120.091 314.26C120.091 313.7 120.201 313.21 120.421 312.79C120.648 312.363 120.958 312.037 121.351 311.81C121.751 311.577 122.201 311.46 122.701 311.46C123.221 311.46 123.668 311.58 124.041 311.82C124.421 312.06 124.695 312.367 124.861 312.74V311.54H125.561V317H124.861V315.79C124.688 316.163 124.411 316.473 124.031 316.72C123.658 316.96 123.211 317.08 122.691 317.08C122.198 317.08 121.751 316.963 121.351 316.73C120.958 316.497 120.648 316.167 120.421 315.74C120.201 315.313 120.091 314.82 120.091 314.26ZM124.861 314.27C124.861 313.83 124.771 313.443 124.591 313.11C124.411 312.777 124.165 312.52 123.851 312.34C123.545 312.16 123.205 312.07 122.831 312.07C122.445 312.07 122.098 312.157 121.791 312.33C121.485 312.503 121.241 312.757 121.061 313.09C120.888 313.417 120.801 313.807 120.801 314.26C120.801 314.707 120.888 315.1 121.061 315.44C121.241 315.773 121.485 316.03 121.791 316.21C122.098 316.383 122.445 316.47 122.831 316.47C123.205 316.47 123.545 316.38 123.851 316.2C124.165 316.02 124.411 315.763 124.591 315.43C124.771 315.097 124.861 314.71 124.861 314.27ZM131.659 311.54L128.419 319.57H127.689L128.749 316.97L126.509 311.54H127.279L129.139 316.2L130.939 311.54H131.659ZM137.339 311.54V317H136.639V316.04C136.479 316.38 136.232 316.64 135.899 316.82C135.565 317 135.192 317.09 134.779 317.09C134.125 317.09 133.592 316.89 133.179 316.49C132.765 316.083 132.559 315.497 132.559 314.73V311.54H133.249V314.65C133.249 315.243 133.395 315.697 133.689 316.01C133.989 316.323 134.395 316.48 134.909 316.48C135.435 316.48 135.855 316.313 136.169 315.98C136.482 315.647 136.639 315.157 136.639 314.51V311.54H137.339ZM138.617 314.26C138.617 313.7 138.73 313.21 138.957 312.79C139.183 312.363 139.493 312.037 139.887 311.81C140.287 311.577 140.737 311.46 141.237 311.46C141.717 311.46 142.15 311.577 142.537 311.81C142.923 312.043 143.207 312.347 143.387 312.72V309.6H144.087V317H143.387V315.78C143.22 316.16 142.947 316.473 142.567 316.72C142.187 316.96 141.74 317.08 141.227 317.08C140.727 317.08 140.277 316.963 139.877 316.73C139.483 316.497 139.173 316.167 138.947 315.74C138.727 315.313 138.617 314.82 138.617 314.26ZM143.387 314.27C143.387 313.83 143.297 313.443 143.117 313.11C142.937 312.777 142.69 312.52 142.377 312.34C142.07 312.16 141.73 312.07 141.357 312.07C140.97 312.07 140.623 312.157 140.317 312.33C140.01 312.503 139.767 312.757 139.587 313.09C139.413 313.417 139.327 313.807 139.327 314.26C139.327 314.707 139.413 315.1 139.587 315.44C139.767 315.773 140.01 316.03 140.317 316.21C140.623 316.383 140.97 316.47 141.357 316.47C141.73 316.47 142.07 316.38 142.377 316.2C142.69 316.02 142.937 315.763 143.117 315.43C143.297 315.097 143.387 314.71 143.387 314.27ZM145.365 314.26C145.365 313.7 145.475 313.21 145.695 312.79C145.921 312.363 146.231 312.037 146.625 311.81C147.025 311.577 147.475 311.46 147.975 311.46C148.495 311.46 148.941 311.58 149.315 311.82C149.695 312.06 149.968 312.367 150.135 312.74V311.54H150.835V317H150.135V315.79C149.961 316.163 149.685 316.473 149.305 316.72C148.931 316.96 148.485 317.08 147.965 317.08C147.471 317.08 147.025 316.963 146.625 316.73C146.231 316.497 145.921 316.167 145.695 315.74C145.475 315.313 145.365 314.82 145.365 314.26ZM150.135 314.27C150.135 313.83 150.045 313.443 149.865 313.11C149.685 312.777 149.438 312.52 149.125 312.34C148.818 312.16 148.478 312.07 148.105 312.07C147.718 312.07 147.371 312.157 147.065 312.33C146.758 312.503 146.515 312.757 146.335 313.09C146.161 313.417 146.075 313.807 146.075 314.26C146.075 314.707 146.161 315.1 146.335 315.44C146.515 315.773 146.758 316.03 147.065 316.21C147.371 316.383 147.718 316.47 148.105 316.47C148.478 316.47 148.818 316.38 149.125 316.2C149.438 316.02 149.685 315.763 149.865 315.43C150.045 315.097 150.135 314.71 150.135 314.27ZM153.133 312.51C153.286 312.17 153.519 311.907 153.833 311.72C154.153 311.533 154.543 311.44 155.003 311.44V312.17H154.813C154.306 312.17 153.899 312.307 153.593 312.58C153.286 312.853 153.133 313.31 153.133 313.95V317H152.433V311.54H153.133V312.51ZM156.966 312.13V315.52C156.966 315.853 157.029 316.083 157.156 316.21C157.283 316.337 157.506 316.4 157.826 316.4H158.466V317H157.716C157.223 317 156.856 316.887 156.616 316.66C156.376 316.427 156.256 316.047 156.256 315.52V312.13H155.496V311.54H156.256V310.17H156.966V311.54H158.466V312.13H156.966ZM164.56 313.99C164.56 314.23 164.554 314.413 164.54 314.54H160.01C160.03 314.953 160.13 315.307 160.31 315.6C160.49 315.893 160.727 316.117 161.02 316.27C161.314 316.417 161.634 316.49 161.98 316.49C162.434 316.49 162.814 316.38 163.12 316.16C163.434 315.94 163.64 315.643 163.74 315.27H164.48C164.347 315.803 164.06 316.24 163.62 316.58C163.187 316.913 162.64 317.08 161.98 317.08C161.467 317.08 161.007 316.967 160.6 316.74C160.194 316.507 159.874 316.18 159.64 315.76C159.414 315.333 159.3 314.837 159.3 314.27C159.3 313.703 159.414 313.207 159.64 312.78C159.867 312.353 160.184 312.027 160.59 311.8C160.997 311.573 161.46 311.46 161.98 311.46C162.5 311.46 162.954 311.573 163.34 311.8C163.734 312.027 164.034 312.333 164.24 312.72C164.454 313.1 164.56 313.523 164.56 313.99ZM163.85 313.97C163.857 313.563 163.774 313.217 163.6 312.93C163.434 312.643 163.204 312.427 162.91 312.28C162.617 312.133 162.297 312.06 161.95 312.06C161.43 312.06 160.987 312.227 160.62 312.56C160.254 312.893 160.05 313.363 160.01 313.97H163.85ZM165.961 317.05C165.814 317.05 165.691 317 165.591 316.9C165.498 316.8 165.451 316.677 165.451 316.53C165.451 316.383 165.498 316.263 165.591 316.17C165.691 316.07 165.814 316.02 165.961 316.02C166.101 316.02 166.218 316.07 166.311 316.17C166.411 316.263 166.461 316.383 166.461 316.53C166.461 316.677 166.411 316.8 166.311 316.9C166.218 317 166.101 317.05 165.961 317.05Z" fill="black"/>
<defs>
<filter id="filter0_d_146_976" x="0" y="0" width="301" height="441" filterUnits="userSpaceOnUse" color-interpolation-filters="sRGB">
<feFlood flood-opacity="0" result="BackgroundImageFix"/>
<feColorMatrix in="SourceAlpha" type="matrix" values="0 0 0 0 0 0 0 0 0 0 0 0 0 0 0 0 0 0 127 0" result="hardAlpha"/>
<feOffset dy="4"/>
<feGaussianBlur stdDeviation="2"/>
<feComposite in2="hardAlpha" operator="out"/>
<feColorMatrix type="matrix" values="0 0 0 0 0 0 0 0 0 0.298039 0 0 0 0 0.54902 0 0 0 1 0"/>
<feBlend mode="normal" in2="BackgroundImageFix" result="effect1_dropShadow_146_976"/>
<feBlend mode="normal" in="SourceGraphic" in2="effect1_dropShadow_146_976" result="shape"/>
</filter>
</defs>
</svg>
