<svg width="301" height="441" viewBox="0 0 301 441" fill="none" xmlns="http://www.w3.org/2000/svg">
<g filter="url(#filter0_d_146_962)">
<rect x="4" width="293" height="433" rx="31" fill="#FEFEFE"/>
</g>
<path d="M46.314 29.622C48.0153 29.622 49.4747 29.93 50.692 30.546C51.9093 31.162 52.8407 32.0493 53.486 33.208C54.1313 34.3667 54.454 35.7453 54.454 37.344C54.454 38.928 54.1313 40.2993 53.486 41.458C52.8407 42.602 51.9093 43.482 50.692 44.098C49.4747 44.6993 48.0153 45 46.314 45H41.76V29.622H46.314ZM46.314 43.724C48.4553 43.724 50.0833 43.1667 51.198 42.052C52.3273 40.9227 52.892 39.3533 52.892 37.344C52.892 35.32 52.3273 33.7433 51.198 32.614C50.0833 31.47 48.4553 30.898 46.314 30.898H43.3V43.724H46.314ZM68.1612 38.378C68.1612 38.906 68.1465 39.3093 68.1172 39.588H58.1512C58.1952 40.4973 58.4152 41.2747 58.8112 41.92C59.2072 42.5653 59.7279 43.0567 60.3732 43.394C61.0185 43.7167 61.7225 43.878 62.4852 43.878C63.4825 43.878 64.3185 43.636 64.9932 43.152C65.6825 42.668 66.1372 42.0153 66.3572 41.194H67.9852C67.6919 42.3673 67.0612 43.328 66.0932 44.076C65.1399 44.8093 63.9372 45.176 62.4852 45.176C61.3559 45.176 60.3439 44.9267 59.4492 44.428C58.5545 43.9147 57.8505 43.196 57.3372 42.272C56.8385 41.3333 56.5892 40.2407 56.5892 38.994C56.5892 37.7473 56.8385 36.6547 57.3372 35.716C57.8359 34.7773 58.5325 34.0587 59.4272 33.56C60.3219 33.0613 61.3412 32.812 62.4852 32.812C63.6292 32.812 64.6265 33.0613 65.4772 33.56C66.3425 34.0587 67.0025 34.7333 67.4572 35.584C67.9265 36.42 68.1612 37.3513 68.1612 38.378ZM66.5992 38.334C66.6139 37.4393 66.4305 36.6767 66.0492 36.046C65.6825 35.4153 65.1765 34.9387 64.5312 34.616C63.8859 34.2933 63.1819 34.132 62.4192 34.132C61.2752 34.132 60.2999 34.4987 59.4932 35.232C58.6865 35.9653 58.2392 36.9993 58.1512 38.334H66.5992ZM75.1148 45.176C73.7361 45.176 72.6068 44.8607 71.7268 44.23C70.8614 43.5847 70.3774 42.712 70.2748 41.612H71.8588C71.9321 42.2867 72.2474 42.8367 72.8048 43.262C73.3768 43.6727 74.1394 43.878 75.0928 43.878C75.9288 43.878 76.5814 43.68 77.0508 43.284C77.5348 42.888 77.7768 42.3967 77.7768 41.81C77.7768 41.3993 77.6448 41.062 77.3808 40.798C77.1168 40.534 76.7794 40.3287 76.3688 40.182C75.9728 40.0207 75.4301 39.852 74.7408 39.676C73.8461 39.4413 73.1201 39.2067 72.5628 38.972C72.0054 38.7373 71.5288 38.3927 71.1328 37.938C70.7514 37.4687 70.5608 36.8453 70.5608 36.068C70.5608 35.4813 70.7368 34.9387 71.0888 34.44C71.4408 33.9413 71.9394 33.5453 72.5848 33.252C73.2301 32.9587 73.9634 32.812 74.7848 32.812C76.0754 32.812 77.1168 33.142 77.9088 33.802C78.7008 34.4473 79.1261 35.342 79.1848 36.486H77.6448C77.6008 35.782 77.3221 35.2173 76.8088 34.792C76.3101 34.352 75.6208 34.132 74.7408 34.132C73.9634 34.132 73.3328 34.3153 72.8488 34.682C72.3648 35.0487 72.1227 35.5033 72.1227 36.046C72.1227 36.5153 72.2621 36.904 72.5408 37.212C72.8341 37.5053 73.1934 37.74 73.6188 37.916C74.0441 38.0773 74.6161 38.2607 75.3348 38.466C76.2001 38.7007 76.8894 38.928 77.4028 39.148C77.9161 39.368 78.3561 39.6907 78.7228 40.116C79.0894 40.5413 79.2801 41.106 79.2948 41.81C79.2948 42.4553 79.1188 43.0347 78.7668 43.548C78.4148 44.0467 77.9234 44.4427 77.2928 44.736C76.6621 45.0293 75.9361 45.176 75.1148 45.176ZM81.4896 38.972C81.4896 37.74 81.7389 36.662 82.2376 35.738C82.7363 34.7993 83.4183 34.0807 84.2836 33.582C85.1636 33.0687 86.1536 32.812 87.2536 32.812C88.3096 32.812 89.2629 33.0687 90.1136 33.582C90.9643 34.0953 91.5876 34.7627 91.9836 35.584V28.72H93.5236V45H91.9836V42.316C91.6169 43.152 91.0156 43.8413 90.1796 44.384C89.3436 44.912 88.3609 45.176 87.2316 45.176C86.1316 45.176 85.1416 44.9193 84.2616 44.406C83.3963 43.8927 82.7143 43.1667 82.2156 42.228C81.7316 41.2893 81.4896 40.204 81.4896 38.972ZM91.9836 38.994C91.9836 38.026 91.7856 37.1753 91.3896 36.442C90.9936 35.7087 90.4509 35.144 89.7616 34.748C89.0869 34.352 88.3389 34.154 87.5176 34.154C86.6669 34.154 85.9043 34.3447 85.2296 34.726C84.5549 35.1073 84.0196 35.6647 83.6236 36.398C83.2423 37.1167 83.0516 37.9747 83.0516 38.972C83.0516 39.9547 83.2423 40.82 83.6236 41.568C84.0196 42.3013 84.5549 42.866 85.2296 43.262C85.9043 43.6433 86.6669 43.834 87.5176 43.834C88.3389 43.834 89.0869 43.636 89.7616 43.24C90.4509 42.844 90.9936 42.2793 91.3896 41.546C91.7856 40.8127 91.9836 39.962 91.9836 38.994ZM107.907 38.378C107.907 38.906 107.893 39.3093 107.863 39.588H97.8973C97.9413 40.4973 98.1613 41.2747 98.5573 41.92C98.9533 42.5653 99.474 43.0567 100.119 43.394C100.765 43.7167 101.469 43.878 102.231 43.878C103.229 43.878 104.065 43.636 104.739 43.152C105.429 42.668 105.883 42.0153 106.103 41.194H107.731C107.438 42.3673 106.807 43.328 105.839 44.076C104.886 44.8093 103.683 45.176 102.231 45.176C101.102 45.176 100.09 44.9267 99.1953 44.428C98.3006 43.9147 97.5966 43.196 97.0833 42.272C96.5846 41.3333 96.3353 40.2407 96.3353 38.994C96.3353 37.7473 96.5846 36.6547 97.0833 35.716C97.582 34.7773 98.2786 34.0587 99.1733 33.56C100.068 33.0613 101.087 32.812 102.231 32.812C103.375 32.812 104.373 33.0613 105.223 33.56C106.089 34.0587 106.749 34.7333 107.203 35.584C107.673 36.42 107.907 37.3513 107.907 38.378ZM106.345 38.334C106.36 37.4393 106.177 36.6767 105.795 36.046C105.429 35.4153 104.923 34.9387 104.277 34.616C103.632 34.2933 102.928 34.132 102.165 34.132C101.021 34.132 100.046 34.4987 99.2393 35.232C98.4326 35.9653 97.9853 36.9993 97.8973 38.334H106.345ZM116.058 38.972C116.058 37.74 116.307 36.662 116.806 35.738C117.305 34.7993 117.987 34.0807 118.852 33.582C119.732 33.0687 120.722 32.812 121.822 32.812C122.878 32.812 123.831 33.0687 124.682 33.582C125.533 34.0953 126.156 34.7627 126.552 35.584V28.72H128.092V45H126.552V42.316C126.185 43.152 125.584 43.8413 124.748 44.384C123.912 44.912 122.929 45.176 121.8 45.176C120.7 45.176 119.71 44.9193 118.83 44.406C117.965 43.8927 117.283 43.1667 116.784 42.228C116.3 41.2893 116.058 40.204 116.058 38.972ZM126.552 38.994C126.552 38.026 126.354 37.1753 125.958 36.442C125.562 35.7087 125.019 35.144 124.33 34.748C123.655 34.352 122.907 34.154 122.086 34.154C121.235 34.154 120.473 34.3447 119.798 34.726C119.123 35.1073 118.588 35.6647 118.192 36.398C117.811 37.1167 117.62 37.9747 117.62 38.972C117.62 39.9547 117.811 40.82 118.192 41.568C118.588 42.3013 119.123 42.866 119.798 43.262C120.473 43.6433 121.235 43.834 122.086 43.834C122.907 43.834 123.655 43.636 124.33 43.24C125.019 42.844 125.562 42.2793 125.958 41.546C126.354 40.8127 126.552 39.962 126.552 38.994ZM142.476 38.378C142.476 38.906 142.461 39.3093 142.432 39.588H132.466C132.51 40.4973 132.73 41.2747 133.126 41.92C133.522 42.5653 134.042 43.0567 134.688 43.394C135.333 43.7167 136.037 43.878 136.8 43.878C137.797 43.878 138.633 43.636 139.308 43.152C139.997 42.668 140.452 42.0153 140.672 41.194H142.3C142.006 42.3673 141.376 43.328 140.408 44.076C139.454 44.8093 138.252 45.176 136.8 45.176C135.67 45.176 134.658 44.9267 133.764 44.428C132.869 43.9147 132.165 43.196 131.652 42.272C131.153 41.3333 130.904 40.2407 130.904 38.994C130.904 37.7473 131.153 36.6547 131.652 35.716C132.15 34.7773 132.847 34.0587 133.742 33.56C134.636 33.0613 135.656 32.812 136.8 32.812C137.944 32.812 138.941 33.0613 139.792 33.56C140.657 34.0587 141.317 34.7333 141.772 35.584C142.241 36.42 142.476 37.3513 142.476 38.378ZM140.914 38.334C140.928 37.4393 140.745 36.6767 140.364 36.046C139.997 35.4153 139.491 34.9387 138.846 34.616C138.2 34.2933 137.496 34.132 136.734 34.132C135.59 34.132 134.614 34.4987 133.808 35.232C133.001 35.9653 132.554 36.9993 132.466 38.334H140.914ZM156.962 32.768C158.4 32.768 159.573 33.2153 160.482 34.11C161.392 34.99 161.846 36.2733 161.846 37.96V45H160.328V38.136C160.328 36.8307 159.998 35.8333 159.338 35.144C158.693 34.4547 157.806 34.11 156.676 34.11C155.518 34.11 154.594 34.4767 153.904 35.21C153.215 35.9433 152.87 37.0213 152.87 38.444V45H151.33V32.988H152.87V35.034C153.252 34.3007 153.802 33.7433 154.52 33.362C155.239 32.966 156.053 32.768 156.962 32.768ZM175.658 32.988V45H174.118V42.888C173.766 43.636 173.224 44.208 172.49 44.604C171.757 45 170.936 45.198 170.026 45.198C168.589 45.198 167.416 44.758 166.506 43.878C165.597 42.9833 165.142 41.6927 165.142 40.006V32.988H166.66V39.83C166.66 41.1353 166.983 42.1327 167.628 42.822C168.288 43.5113 169.183 43.856 170.312 43.856C171.471 43.856 172.395 43.4893 173.084 42.756C173.774 42.0227 174.118 40.9447 174.118 39.522V32.988H175.658ZM190.042 38.378C190.042 38.906 190.027 39.3093 189.998 39.588H180.032C180.076 40.4973 180.296 41.2747 180.692 41.92C181.088 42.5653 181.609 43.0567 182.254 43.394C182.899 43.7167 183.603 43.878 184.366 43.878C185.363 43.878 186.199 43.636 186.874 43.152C187.563 42.668 188.018 42.0153 188.238 41.194H189.866C189.573 42.3673 188.942 43.328 187.974 44.076C187.021 44.8093 185.818 45.176 184.366 45.176C183.237 45.176 182.225 44.9267 181.33 44.428C180.435 43.9147 179.731 43.196 179.218 42.272C178.719 41.3333 178.47 40.2407 178.47 38.994C178.47 37.7473 178.719 36.6547 179.218 35.716C179.717 34.7773 180.413 34.0587 181.308 33.56C182.203 33.0613 183.222 32.812 184.366 32.812C185.51 32.812 186.507 33.0613 187.358 33.56C188.223 34.0587 188.883 34.7333 189.338 35.584C189.807 36.42 190.042 37.3513 190.042 38.378ZM188.48 38.334C188.495 37.4393 188.311 36.6767 187.93 36.046C187.563 35.4153 187.057 34.9387 186.412 34.616C185.767 34.2933 185.063 34.132 184.3 34.132C183.156 34.132 182.181 34.4987 181.374 35.232C180.567 35.9653 180.12 36.9993 180.032 38.334H188.48ZM196.996 45.176C195.617 45.176 194.488 44.8607 193.608 44.23C192.742 43.5847 192.258 42.712 192.156 41.612H193.74C193.813 42.2867 194.128 42.8367 194.686 43.262C195.258 43.6727 196.02 43.878 196.974 43.878C197.81 43.878 198.462 43.68 198.932 43.284C199.416 42.888 199.658 42.3967 199.658 41.81C199.658 41.3993 199.526 41.062 199.262 40.798C198.998 40.534 198.66 40.3287 198.25 40.182C197.854 40.0207 197.311 39.852 196.622 39.676C195.727 39.4413 195.001 39.2067 194.444 38.972C193.886 38.7373 193.41 38.3927 193.014 37.938C192.632 37.4687 192.442 36.8453 192.442 36.068C192.442 35.4813 192.618 34.9387 192.97 34.44C193.322 33.9413 193.82 33.5453 194.466 33.252C195.111 32.9587 195.844 32.812 196.666 32.812C197.956 32.812 198.998 33.142 199.79 33.802C200.582 34.4473 201.007 35.342 201.066 36.486H199.526C199.482 35.782 199.203 35.2173 198.69 34.792C198.191 34.352 197.502 34.132 196.622 34.132C195.844 34.132 195.214 34.3153 194.73 34.682C194.246 35.0487 194.004 35.5033 194.004 36.046C194.004 36.5153 194.143 36.904 194.422 37.212C194.715 37.5053 195.074 37.74 195.5 37.916C195.925 38.0773 196.497 38.2607 197.216 38.466C198.081 38.7007 198.77 38.928 199.284 39.148C199.797 39.368 200.237 39.6907 200.604 40.116C200.97 40.5413 201.161 41.106 201.176 41.81C201.176 42.4553 201 43.0347 200.648 43.548C200.296 44.0467 199.804 44.4427 199.174 44.736C198.543 45.0293 197.817 45.176 196.996 45.176ZM206.076 34.286V41.744C206.076 42.4773 206.216 42.9833 206.494 43.262C206.773 43.5407 207.264 43.68 207.968 43.68H209.376V45H207.726C206.641 45 205.834 44.7507 205.306 44.252C204.778 43.7387 204.514 42.9027 204.514 41.744V34.286H202.842V32.988H204.514V29.974H206.076V32.988H209.376V34.286H206.076ZM213.456 35.122C213.794 34.374 214.307 33.7947 214.996 33.384C215.7 32.9733 216.558 32.768 217.57 32.768V34.374H217.152C216.038 34.374 215.143 34.6747 214.468 35.276C213.794 35.8773 213.456 36.882 213.456 38.29V45H211.916V32.988H213.456V35.122ZM219.183 38.972C219.183 37.74 219.425 36.662 219.909 35.738C220.408 34.7993 221.09 34.0807 221.955 33.582C222.835 33.0687 223.825 32.812 224.925 32.812C226.069 32.812 227.052 33.076 227.873 33.604C228.709 34.132 229.31 34.8067 229.677 35.628V32.988H231.217V45H229.677V42.338C229.296 43.1593 228.687 43.8413 227.851 44.384C227.03 44.912 226.047 45.176 224.903 45.176C223.818 45.176 222.835 44.9193 221.955 44.406C221.09 43.8927 220.408 43.1667 219.909 42.228C219.425 41.2893 219.183 40.204 219.183 38.972ZM229.677 38.994C229.677 38.026 229.479 37.1753 229.083 36.442C228.687 35.7087 228.144 35.144 227.455 34.748C226.78 34.352 226.032 34.154 225.211 34.154C224.36 34.154 223.598 34.3447 222.923 34.726C222.248 35.1073 221.713 35.6647 221.317 36.398C220.936 37.1167 220.745 37.9747 220.745 38.972C220.745 39.9547 220.936 40.82 221.317 41.568C221.713 42.3013 222.248 42.866 222.923 43.262C223.598 43.6433 224.36 43.834 225.211 43.834C226.032 43.834 226.78 43.636 227.455 43.24C228.144 42.844 228.687 42.2793 229.083 41.546C229.479 40.8127 229.677 39.962 229.677 38.994ZM43.278 63.628C43.6593 62.8213 44.2607 62.154 45.082 61.626C45.918 61.0833 46.908 60.812 48.052 60.812C49.1373 60.812 50.1127 61.0687 50.978 61.582C51.858 62.0807 52.54 62.7993 53.024 63.738C53.5227 64.662 53.772 65.74 53.772 66.972C53.772 68.204 53.5227 69.2893 53.024 70.228C52.54 71.1667 51.858 71.8927 50.978 72.406C50.1127 72.9193 49.1373 73.176 48.052 73.176C46.9227 73.176 45.94 72.912 45.104 72.384C44.268 71.8413 43.6593 71.1667 43.278 70.36V78.676H41.76V60.988H43.278V63.628ZM52.21 66.972C52.21 65.9747 52.012 65.1167 51.616 64.398C51.2347 63.6647 50.7067 63.1073 50.032 62.726C49.3573 62.3447 48.5947 62.154 47.744 62.154C46.9227 62.154 46.1673 62.352 45.478 62.748C44.8033 63.144 44.268 63.7087 43.872 64.442C43.476 65.1753 43.278 66.026 43.278 66.994C43.278 67.962 43.476 68.8127 43.872 69.546C44.268 70.2793 44.8033 70.844 45.478 71.24C46.1673 71.636 46.9227 71.834 47.744 71.834C48.5947 71.834 49.3573 71.6433 50.032 71.262C50.7067 70.866 51.2347 70.3013 51.616 69.568C52.012 68.82 52.21 67.9547 52.21 66.972ZM55.9017 66.972C55.9017 65.74 56.1437 64.662 56.6277 63.738C57.1264 62.7993 57.8084 62.0807 58.6737 61.582C59.5537 61.0687 60.5437 60.812 61.6437 60.812C62.7877 60.812 63.7704 61.076 64.5917 61.604C65.4277 62.132 66.029 62.8067 66.3957 63.628V60.988H67.9357V73H66.3957V70.338C66.0144 71.1593 65.4057 71.8413 64.5697 72.384C63.7484 72.912 62.7657 73.176 61.6217 73.176C60.5364 73.176 59.5537 72.9193 58.6737 72.406C57.8084 71.8927 57.1264 71.1667 56.6277 70.228C56.1437 69.2893 55.9017 68.204 55.9017 66.972ZM66.3957 66.994C66.3957 66.026 66.1977 65.1753 65.8017 64.442C65.4057 63.7087 64.863 63.144 64.1737 62.748C63.499 62.352 62.751 62.154 61.9297 62.154C61.079 62.154 60.3164 62.3447 59.6417 62.726C58.967 63.1073 58.4317 63.6647 58.0357 64.398C57.6544 65.1167 57.4637 65.9747 57.4637 66.972C57.4637 67.9547 57.6544 68.82 58.0357 69.568C58.4317 70.3013 58.967 70.866 59.6417 71.262C60.3164 71.6433 61.079 71.834 61.9297 71.834C62.751 71.834 63.499 71.636 64.1737 71.24C64.863 70.844 65.4057 70.2793 65.8017 69.546C66.1977 68.8127 66.3957 67.962 66.3957 66.994ZM64.3277 57.446L59.8177 60.064V58.876L64.3277 56.06V57.446ZM76.4894 60.812C77.6187 60.812 78.6014 61.076 79.4374 61.604C80.2734 62.132 80.8747 62.7993 81.2414 63.606V60.988H82.7814V73.308C82.7814 74.408 82.5394 75.3833 82.0554 76.234C81.5861 77.0847 80.9261 77.7373 80.0754 78.192C79.2247 78.6613 78.2567 78.896 77.1714 78.896C75.6314 78.896 74.3481 78.5293 73.3214 77.796C72.3094 77.0627 71.6787 76.0653 71.4294 74.804H72.9474C73.2114 75.64 73.7101 76.3073 74.4434 76.806C75.1914 77.3047 76.1007 77.554 77.1714 77.554C77.9487 77.554 78.6454 77.3853 79.2614 77.048C79.8774 76.7253 80.3614 76.2413 80.7134 75.596C81.0654 74.9507 81.2414 74.188 81.2414 73.308V70.338C80.8601 71.1593 80.2514 71.8413 79.4154 72.384C78.5941 72.912 77.6187 73.176 76.4894 73.176C75.3894 73.176 74.3994 72.9193 73.5194 72.406C72.6541 71.8927 71.9721 71.1667 71.4734 70.228C70.9894 69.2893 70.7474 68.204 70.7474 66.972C70.7474 65.74 70.9894 64.662 71.4734 63.738C71.9721 62.7993 72.6541 62.0807 73.5194 61.582C74.3994 61.0687 75.3894 60.812 76.4894 60.812ZM81.2414 66.994C81.2414 66.026 81.0434 65.1753 80.6474 64.442C80.2514 63.7087 79.7087 63.144 79.0194 62.748C78.3447 62.352 77.5967 62.154 76.7754 62.154C75.9247 62.154 75.1621 62.3447 74.4874 62.726C73.8127 63.1073 73.2774 63.6647 72.8814 64.398C72.5001 65.1167 72.3094 65.9747 72.3094 66.972C72.3094 67.9547 72.5001 68.82 72.8814 69.568C73.2774 70.3013 73.8127 70.866 74.4874 71.262C75.1621 71.6433 75.9247 71.834 76.7754 71.834C77.5967 71.834 78.3447 71.636 79.0194 71.24C79.7087 70.844 80.2514 70.2793 80.6474 69.546C81.0434 68.8127 81.2414 67.962 81.2414 66.994ZM87.0671 58.722C86.7591 58.722 86.4951 58.612 86.2751 58.392C86.0551 58.172 85.9451 57.9007 85.9451 57.578C85.9451 57.2553 86.0551 56.9913 86.2751 56.786C86.4951 56.566 86.7591 56.456 87.0671 56.456C87.3751 56.456 87.6391 56.566 87.8591 56.786C88.0791 56.9913 88.1891 57.2553 88.1891 57.578C88.1891 57.9007 88.0791 58.172 87.8591 58.392C87.6391 58.612 87.3751 58.722 87.0671 58.722ZM87.8371 60.988V73H86.2971V60.988H87.8371ZM96.9565 60.768C98.3938 60.768 99.5671 61.2153 100.476 62.11C101.386 62.99 101.84 64.2733 101.84 65.96V73H100.322V66.136C100.322 64.8307 99.9925 63.8333 99.3325 63.144C98.6871 62.4547 97.7998 62.11 96.6705 62.11C95.5118 62.11 94.5878 62.4767 93.8985 63.21C93.2091 63.9433 92.8645 65.0213 92.8645 66.444V73H91.3245V60.988H92.8645V63.034C93.2458 62.3007 93.7958 61.7433 94.5145 61.362C95.2331 60.966 96.0471 60.768 96.9565 60.768ZM104.542 66.972C104.542 65.74 104.784 64.662 105.268 63.738C105.767 62.7993 106.449 62.0807 107.314 61.582C108.194 61.0687 109.184 60.812 110.284 60.812C111.428 60.812 112.411 61.076 113.232 61.604C114.068 62.132 114.67 62.8067 115.036 63.628V60.988H116.576V73H115.036V70.338C114.655 71.1593 114.046 71.8413 113.21 72.384C112.389 72.912 111.406 73.176 110.262 73.176C109.177 73.176 108.194 72.9193 107.314 72.406C106.449 71.8927 105.767 71.1667 105.268 70.228C104.784 69.2893 104.542 68.204 104.542 66.972ZM115.036 66.994C115.036 66.026 114.838 65.1753 114.442 64.442C114.046 63.7087 113.504 63.144 112.814 62.748C112.14 62.352 111.392 62.154 110.57 62.154C109.72 62.154 108.957 62.3447 108.282 62.726C107.608 63.1073 107.072 63.6647 106.676 64.398C106.295 65.1167 106.104 65.9747 106.104 66.972C106.104 67.9547 106.295 68.82 106.676 69.568C107.072 70.3013 107.608 70.866 108.282 71.262C108.957 71.6433 109.72 71.834 110.57 71.834C111.392 71.834 112.14 71.636 112.814 71.24C113.504 70.844 114.046 70.2793 114.442 69.546C114.838 68.8127 115.036 67.962 115.036 66.994Z" fill="black"/>
<path fill-rule="evenodd" clip-rule="evenodd" d="M274 410C274.001 412.704 273.316 415.363 272.011 417.731C270.705 420.098 268.821 422.096 266.534 423.538C264.247 424.98 261.632 425.819 258.933 425.977C256.234 426.135 253.539 425.606 251.1 424.44C250.389 424.082 249.573 423.99 248.8 424.18L246.346 424.838C245.905 424.956 245.442 424.955 245.001 424.837C244.561 424.719 244.159 424.486 243.837 424.164C243.514 423.841 243.282 423.439 243.164 422.999C243.046 422.558 243.046 422.095 243.164 421.654L243.82 419.2C244.01 418.427 243.918 417.611 243.56 416.9C242.526 414.733 241.993 412.361 242 409.961C242.007 407.56 242.555 405.191 243.602 403.031C244.649 400.87 246.169 398.973 248.049 397.48C249.929 395.987 252.121 394.936 254.463 394.405C256.804 393.874 259.235 393.877 261.576 394.414C263.916 394.95 266.105 396.006 267.982 397.504C269.858 399.002 271.373 400.903 272.415 403.066C273.457 405.229 273.999 407.599 274 410ZM251 412C251.53 412 252.039 411.789 252.414 411.414C252.789 411.039 253 410.53 253 410C253 409.47 252.789 408.961 252.414 408.586C252.039 408.211 251.53 408 251 408C250.47 408 249.961 408.211 249.586 408.586C249.211 408.961 249 409.47 249 410C249 410.53 249.211 411.039 249.586 411.414C249.961 411.789 250.47 412 251 412ZM258 412C258.53 412 259.039 411.789 259.414 411.414C259.789 411.039 260 410.53 260 410C260 409.47 259.789 408.961 259.414 408.586C259.039 408.211 258.53 408 258 408C257.47 408 256.961 408.211 256.586 408.586C256.211 408.961 256 409.47 256 410C256 410.53 256.211 411.039 256.586 411.414C256.961 411.789 257.47 412 258 412ZM265 412C265.53 412 266.039 411.789 266.414 411.414C266.789 411.039 267 410.53 267 410C267 409.47 266.789 408.961 266.414 408.586C266.039 408.211 265.53 408 265 408C264.47 408 263.961 408.211 263.586 408.586C263.211 408.961 263 409.47 263 410C263 410.53 263.211 411.039 263.586 411.414C263.961 411.789 264.47 412 265 412Z" fill="black"/>
<path opacity="0.6" d="M273.968 411.016C274.184 410.927 274.398 410.833 274.608 410.732C275.19 410.452 275.852 410.354 276.476 410.522L278.468 411.056C278.827 411.152 279.204 411.152 279.563 411.057C279.921 410.961 280.248 410.772 280.51 410.51C280.773 410.247 280.961 409.92 281.057 409.562C281.153 409.204 281.153 408.826 281.056 408.468L280.522 406.476C280.368 405.847 280.442 405.184 280.732 404.606C281.463 403.041 281.875 401.346 281.944 399.621C282.013 397.895 281.737 396.173 281.133 394.555C280.529 392.937 279.608 391.456 278.425 390.198C277.242 388.94 275.82 387.93 274.242 387.227C272.665 386.525 270.963 386.144 269.236 386.106C267.509 386.069 265.793 386.376 264.186 387.009C262.579 387.643 261.115 388.59 259.878 389.796C258.642 391.002 257.658 392.442 256.984 394.032C257.32 394.011 257.659 394 258 394C260.187 394 262.351 394.448 264.357 395.317C266.364 396.186 268.172 397.457 269.668 399.051C271.164 400.646 272.318 402.53 273.058 404.588C273.797 406.646 274.107 408.834 273.968 411.016Z" fill="black"/>
<path d="M39 122C39 109.85 48.8497 100 61 100H221C233.15 100 243 109.85 243 122V382H61C48.8497 382 39 372.15 39 360V122Z" fill="#333333"/>
<path d="M91 279C91 272.373 96.3726 267 103 267H221C227.627 267 233 272.373 233 279V302H103C96.3726 302 91 296.627 91 290V279Z" fill="#D9D9D9"/>
<path d="M39 341H243V382H61C48.8497 382 39 372.15 39 360V341Z" fill="#D9D9D9"/>
<path d="M218.833 357.667V364.333C218.833 365.438 219.272 366.498 220.053 367.28C220.835 368.061 221.895 368.5 223 368.5C224.105 368.5 225.165 368.061 225.946 367.28C226.727 366.498 227.166 365.438 227.166 364.333V356.417C227.166 355.643 226.859 354.901 226.312 354.354C225.765 353.807 225.023 353.5 224.25 353.5C223.476 353.5 222.734 353.807 222.187 354.354C221.64 354.901 221.333 355.643 221.333 356.417V363.5C221.333 363.942 221.509 364.366 221.821 364.679C222.134 364.991 222.558 365.167 223 365.167C223.442 365.167 223.866 364.991 224.178 364.679C224.491 364.366 224.666 363.942 224.666 363.5V357.667" stroke="black" stroke-width="1.66667" stroke-linecap="round" stroke-linejoin="round"/>
<path d="M107.99 275.01V282H107.29V278.73H103.5V282H102.8V275.01H103.5V278.15H107.29V275.01H107.99ZM111.977 282.08C111.464 282.08 111 281.967 110.587 281.74C110.18 281.507 109.857 281.18 109.617 280.76C109.384 280.333 109.267 279.837 109.267 279.27C109.267 278.703 109.387 278.21 109.627 277.79C109.867 277.363 110.194 277.037 110.607 276.81C111.02 276.577 111.484 276.46 111.997 276.46C112.51 276.46 112.974 276.577 113.387 276.81C113.807 277.037 114.134 277.363 114.367 277.79C114.607 278.21 114.727 278.703 114.727 279.27C114.727 279.83 114.607 280.323 114.367 280.75C114.127 281.177 113.797 281.507 113.377 281.74C112.957 281.967 112.49 282.08 111.977 282.08ZM111.977 281.47C112.337 281.47 112.67 281.39 112.977 281.23C113.284 281.063 113.53 280.817 113.717 280.49C113.91 280.157 114.007 279.75 114.007 279.27C114.007 278.79 113.914 278.387 113.727 278.06C113.54 277.727 113.294 277.48 112.987 277.32C112.68 277.153 112.347 277.07 111.987 277.07C111.627 277.07 111.294 277.153 110.987 277.32C110.68 277.48 110.434 277.727 110.247 278.06C110.067 278.387 109.977 278.79 109.977 279.27C109.977 279.75 110.067 280.157 110.247 280.49C110.434 280.817 110.677 281.063 110.977 281.23C111.284 281.39 111.617 281.47 111.977 281.47ZM116.703 274.6V282H116.003V274.6H116.703ZM117.968 279.26C117.968 278.7 118.078 278.21 118.298 277.79C118.525 277.363 118.835 277.037 119.228 276.81C119.628 276.577 120.078 276.46 120.578 276.46C121.098 276.46 121.545 276.58 121.918 276.82C122.298 277.06 122.572 277.367 122.738 277.74V276.54H123.438V282H122.738V280.79C122.565 281.163 122.288 281.473 121.908 281.72C121.535 281.96 121.088 282.08 120.568 282.08C120.075 282.08 119.628 281.963 119.228 281.73C118.835 281.497 118.525 281.167 118.298 280.74C118.078 280.313 117.968 279.82 117.968 279.26ZM122.738 279.27C122.738 278.83 122.648 278.443 122.468 278.11C122.288 277.777 122.042 277.52 121.728 277.34C121.422 277.16 121.082 277.07 120.708 277.07C120.322 277.07 119.975 277.157 119.668 277.33C119.362 277.503 119.118 277.757 118.938 278.09C118.765 278.417 118.678 278.807 118.678 279.26C118.678 279.707 118.765 280.1 118.938 280.44C119.118 280.773 119.362 281.03 119.668 281.21C119.975 281.383 120.322 281.47 120.708 281.47C121.082 281.47 121.422 281.38 121.728 281.2C122.042 281.02 122.288 280.763 122.468 280.43C122.648 280.097 122.738 279.71 122.738 279.27ZM125.976 275.01L125.886 280.15H125.296L125.216 275.01H125.976ZM125.626 282.05C125.48 282.05 125.356 282 125.256 281.9C125.163 281.8 125.116 281.677 125.116 281.53C125.116 281.383 125.163 281.263 125.256 281.17C125.356 281.07 125.48 281.02 125.626 281.02C125.766 281.02 125.883 281.07 125.976 281.17C126.076 281.263 126.126 281.383 126.126 281.53C126.126 281.677 126.076 281.8 125.976 281.9C125.883 282 125.766 282.05 125.626 282.05ZM132.434 282.08C131.807 282.08 131.294 281.937 130.894 281.65C130.501 281.357 130.281 280.96 130.234 280.46H130.954C130.987 280.767 131.131 281.017 131.384 281.21C131.644 281.397 131.991 281.49 132.424 281.49C132.804 281.49 133.101 281.4 133.314 281.22C133.534 281.04 133.644 280.817 133.644 280.55C133.644 280.363 133.584 280.21 133.464 280.09C133.344 279.97 133.191 279.877 133.004 279.81C132.824 279.737 132.577 279.66 132.264 279.58C131.857 279.473 131.527 279.367 131.274 279.26C131.021 279.153 130.804 278.997 130.624 278.79C130.451 278.577 130.364 278.293 130.364 277.94C130.364 277.673 130.444 277.427 130.604 277.2C130.764 276.973 130.991 276.793 131.284 276.66C131.577 276.527 131.911 276.46 132.284 276.46C132.871 276.46 133.344 276.61 133.704 276.91C134.064 277.203 134.257 277.61 134.284 278.13H133.584C133.564 277.81 133.437 277.553 133.204 277.36C132.977 277.16 132.664 277.06 132.264 277.06C131.911 277.06 131.624 277.143 131.404 277.31C131.184 277.477 131.074 277.683 131.074 277.93C131.074 278.143 131.137 278.32 131.264 278.46C131.397 278.593 131.561 278.7 131.754 278.78C131.947 278.853 132.207 278.937 132.534 279.03C132.927 279.137 133.241 279.24 133.474 279.34C133.707 279.44 133.907 279.587 134.074 279.78C134.241 279.973 134.327 280.23 134.334 280.55C134.334 280.843 134.254 281.107 134.094 281.34C133.934 281.567 133.711 281.747 133.424 281.88C133.137 282.013 132.807 282.08 132.434 282.08ZM138.042 282.08C137.528 282.08 137.065 281.967 136.652 281.74C136.245 281.507 135.922 281.18 135.682 280.76C135.448 280.333 135.332 279.837 135.332 279.27C135.332 278.703 135.452 278.21 135.692 277.79C135.932 277.363 136.258 277.037 136.672 276.81C137.085 276.577 137.548 276.46 138.062 276.46C138.575 276.46 139.038 276.577 139.452 276.81C139.872 277.037 140.198 277.363 140.432 277.79C140.672 278.21 140.792 278.703 140.792 279.27C140.792 279.83 140.672 280.323 140.432 280.75C140.192 281.177 139.862 281.507 139.442 281.74C139.022 281.967 138.555 282.08 138.042 282.08ZM138.042 281.47C138.402 281.47 138.735 281.39 139.042 281.23C139.348 281.063 139.595 280.817 139.782 280.49C139.975 280.157 140.072 279.75 140.072 279.27C140.072 278.79 139.978 278.387 139.792 278.06C139.605 277.727 139.358 277.48 139.052 277.32C138.745 277.153 138.412 277.07 138.052 277.07C137.692 277.07 137.358 277.153 137.052 277.32C136.745 277.48 136.498 277.727 136.312 278.06C136.132 278.387 136.042 278.79 136.042 279.27C136.042 279.75 136.132 280.157 136.312 280.49C136.498 280.817 136.742 281.063 137.042 281.23C137.348 281.39 137.682 281.47 138.042 281.47ZM146.568 276.54L143.328 284.57H142.598L143.658 281.97L141.418 276.54H142.188L144.048 281.2L145.848 276.54H146.568ZM153.531 278.39C153.924 278.463 154.258 278.663 154.531 278.99C154.804 279.317 154.941 279.697 154.941 280.13C154.941 280.483 154.851 280.803 154.671 281.09C154.498 281.37 154.241 281.593 153.901 281.76C153.561 281.92 153.154 282 152.681 282H150.261V275.01H152.611C153.318 275.01 153.854 275.173 154.221 275.5C154.594 275.827 154.781 276.25 154.781 276.77C154.781 277.203 154.664 277.557 154.431 277.83C154.198 278.097 153.898 278.283 153.531 278.39ZM150.961 278.1H152.591C153.064 278.1 153.428 277.99 153.681 277.77C153.941 277.543 154.071 277.233 154.071 276.84C154.071 276.453 153.941 276.15 153.681 275.93C153.428 275.71 153.054 275.6 152.561 275.6H150.961V278.1ZM152.631 281.41C153.138 281.41 153.531 281.29 153.811 281.05C154.098 280.81 154.241 280.48 154.241 280.06C154.241 279.64 154.091 279.307 153.791 279.06C153.498 278.807 153.101 278.68 152.601 278.68H150.961V281.41H152.631ZM160.958 276.54V282H160.258V281.04C160.098 281.38 159.851 281.64 159.518 281.82C159.184 282 158.811 282.09 158.398 282.09C157.744 282.09 157.211 281.89 156.798 281.49C156.384 281.083 156.178 280.497 156.178 279.73V276.54H156.868V279.65C156.868 280.243 157.014 280.697 157.308 281.01C157.608 281.323 158.014 281.48 158.528 281.48C159.054 281.48 159.474 281.313 159.788 280.98C160.101 280.647 160.258 280.157 160.258 279.51V276.54H160.958ZM162.236 279.26C162.236 278.7 162.349 278.21 162.576 277.79C162.803 277.363 163.113 277.037 163.506 276.81C163.906 276.577 164.356 276.46 164.856 276.46C165.336 276.46 165.769 276.577 166.156 276.81C166.543 277.043 166.826 277.347 167.006 277.72V274.6H167.706V282H167.006V280.78C166.839 281.16 166.566 281.473 166.186 281.72C165.806 281.96 165.359 282.08 164.846 282.08C164.346 282.08 163.896 281.963 163.496 281.73C163.103 281.497 162.793 281.167 162.566 280.74C162.346 280.313 162.236 279.82 162.236 279.26ZM167.006 279.27C167.006 278.83 166.916 278.443 166.736 278.11C166.556 277.777 166.309 277.52 165.996 277.34C165.689 277.16 165.349 277.07 164.976 277.07C164.589 277.07 164.243 277.157 163.936 277.33C163.629 277.503 163.386 277.757 163.206 278.09C163.033 278.417 162.946 278.807 162.946 279.26C162.946 279.707 163.033 280.1 163.206 280.44C163.386 280.773 163.629 281.03 163.936 281.21C164.243 281.383 164.589 281.47 164.976 281.47C165.349 281.47 165.689 281.38 165.996 281.2C166.309 281.02 166.556 280.763 166.736 280.43C166.916 280.097 167.006 279.71 167.006 279.27ZM168.984 279.26C168.984 278.7 169.097 278.21 169.324 277.79C169.551 277.363 169.861 277.037 170.254 276.81C170.654 276.577 171.104 276.46 171.604 276.46C172.084 276.46 172.517 276.577 172.904 276.81C173.291 277.043 173.574 277.347 173.754 277.72V274.6H174.454V282H173.754V280.78C173.587 281.16 173.314 281.473 172.934 281.72C172.554 281.96 172.107 282.08 171.594 282.08C171.094 282.08 170.644 281.963 170.244 281.73C169.851 281.497 169.541 281.167 169.314 280.74C169.094 280.313 168.984 279.82 168.984 279.26ZM173.754 279.27C173.754 278.83 173.664 278.443 173.484 278.11C173.304 277.777 173.057 277.52 172.744 277.34C172.437 277.16 172.097 277.07 171.724 277.07C171.337 277.07 170.991 277.157 170.684 277.33C170.377 277.503 170.134 277.757 169.954 278.09C169.781 278.417 169.694 278.807 169.694 279.26C169.694 279.707 169.781 280.1 169.954 280.44C170.134 280.773 170.377 281.03 170.684 281.21C170.991 281.383 171.337 281.47 171.724 281.47C172.097 281.47 172.437 281.38 172.744 281.2C173.057 281.02 173.304 280.763 173.484 280.43C173.664 280.097 173.754 279.71 173.754 279.27ZM180.552 276.54L177.312 284.57H176.582L177.642 281.97L175.402 276.54H176.172L178.032 281.2L179.832 276.54H180.552ZM182.141 280.84L181.101 283.46H180.621L181.361 280.84H182.141ZM190.914 278.99C190.914 279.23 190.907 279.413 190.894 279.54H186.364C186.384 279.953 186.484 280.307 186.664 280.6C186.844 280.893 187.08 281.117 187.374 281.27C187.667 281.417 187.987 281.49 188.334 281.49C188.787 281.49 189.167 281.38 189.474 281.16C189.787 280.94 189.994 280.643 190.094 280.27H190.834C190.7 280.803 190.414 281.24 189.974 281.58C189.54 281.913 188.994 282.08 188.334 282.08C187.82 282.08 187.36 281.967 186.954 281.74C186.547 281.507 186.227 281.18 185.994 280.76C185.767 280.333 185.654 279.837 185.654 279.27C185.654 278.703 185.767 278.207 185.994 277.78C186.22 277.353 186.537 277.027 186.944 276.8C187.35 276.573 187.814 276.46 188.334 276.46C188.854 276.46 189.307 276.573 189.694 276.8C190.087 277.027 190.387 277.333 190.594 277.72C190.807 278.1 190.914 278.523 190.914 278.99ZM190.204 278.97C190.21 278.563 190.127 278.217 189.954 277.93C189.787 277.643 189.557 277.427 189.264 277.28C188.97 277.133 188.65 277.06 188.304 277.06C187.784 277.06 187.34 277.227 186.974 277.56C186.607 277.893 186.404 278.363 186.364 278.97H190.204ZM194.075 282.08C193.448 282.08 192.935 281.937 192.535 281.65C192.141 281.357 191.921 280.96 191.875 280.46H192.595C192.628 280.767 192.771 281.017 193.025 281.21C193.285 281.397 193.631 281.49 194.065 281.49C194.445 281.49 194.741 281.4 194.955 281.22C195.175 281.04 195.285 280.817 195.285 280.55C195.285 280.363 195.225 280.21 195.105 280.09C194.985 279.97 194.831 279.877 194.645 279.81C194.465 279.737 194.218 279.66 193.905 279.58C193.498 279.473 193.168 279.367 192.915 279.26C192.661 279.153 192.445 278.997 192.265 278.79C192.091 278.577 192.005 278.293 192.005 277.94C192.005 277.673 192.085 277.427 192.245 277.2C192.405 276.973 192.631 276.793 192.925 276.66C193.218 276.527 193.551 276.46 193.925 276.46C194.511 276.46 194.985 276.61 195.345 276.91C195.705 277.203 195.898 277.61 195.925 278.13H195.225C195.205 277.81 195.078 277.553 194.845 277.36C194.618 277.16 194.305 277.06 193.905 277.06C193.551 277.06 193.265 277.143 193.045 277.31C192.825 277.477 192.715 277.683 192.715 277.93C192.715 278.143 192.778 278.32 192.905 278.46C193.038 278.593 193.201 278.7 193.395 278.78C193.588 278.853 193.848 278.937 194.175 279.03C194.568 279.137 194.881 279.24 195.115 279.34C195.348 279.44 195.548 279.587 195.715 279.78C195.881 279.973 195.968 280.23 195.975 280.55C195.975 280.843 195.895 281.107 195.735 281.34C195.575 281.567 195.351 281.747 195.065 281.88C194.778 282.013 194.448 282.08 194.075 282.08ZM198.202 277.13V280.52C198.202 280.853 198.266 281.083 198.392 281.21C198.519 281.337 198.742 281.4 199.062 281.4H199.702V282H198.952C198.459 282 198.092 281.887 197.852 281.66C197.612 281.427 197.492 281.047 197.492 280.52V277.13H196.732V276.54H197.492V275.17H198.202V276.54H199.702V277.13H198.202ZM203.247 282.08C202.733 282.08 202.27 281.967 201.857 281.74C201.45 281.507 201.127 281.18 200.887 280.76C200.653 280.333 200.537 279.837 200.537 279.27C200.537 278.703 200.657 278.21 200.897 277.79C201.137 277.363 201.463 277.037 201.877 276.81C202.29 276.577 202.753 276.46 203.267 276.46C203.78 276.46 204.243 276.577 204.657 276.81C205.077 277.037 205.403 277.363 205.637 277.79C205.877 278.21 205.997 278.703 205.997 279.27C205.997 279.83 205.877 280.323 205.637 280.75C205.397 281.177 205.067 281.507 204.647 281.74C204.227 281.967 203.76 282.08 203.247 282.08ZM203.247 281.47C203.607 281.47 203.94 281.39 204.247 281.23C204.553 281.063 204.8 280.817 204.987 280.49C205.18 280.157 205.277 279.75 205.277 279.27C205.277 278.79 205.183 278.387 204.997 278.06C204.81 277.727 204.563 277.48 204.257 277.32C203.95 277.153 203.617 277.07 203.257 277.07C202.897 277.07 202.563 277.153 202.257 277.32C201.95 277.48 201.703 277.727 201.517 278.06C201.337 278.387 201.247 278.79 201.247 279.27C201.247 279.75 201.337 280.157 201.517 280.49C201.703 280.817 201.947 281.063 202.247 281.23C202.553 281.39 202.887 281.47 203.247 281.47ZM211.773 276.54L208.533 284.57H207.803L208.863 281.97L206.623 276.54H207.393L209.253 281.2L211.053 276.54H211.773ZM103.49 290.74C103.663 290.373 103.937 290.07 104.31 289.83C104.69 289.583 105.14 289.46 105.66 289.46C106.153 289.46 106.597 289.577 106.99 289.81C107.39 290.037 107.7 290.363 107.92 290.79C108.147 291.21 108.26 291.7 108.26 292.26C108.26 292.82 108.147 293.313 107.92 293.74C107.7 294.167 107.39 294.497 106.99 294.73C106.597 294.963 106.153 295.08 105.66 295.08C105.147 295.08 104.7 294.96 104.32 294.72C103.94 294.473 103.663 294.167 103.49 293.8V297.58H102.8V289.54H103.49V290.74ZM107.55 292.26C107.55 291.807 107.46 291.417 107.28 291.09C107.107 290.757 106.867 290.503 106.56 290.33C106.253 290.157 105.907 290.07 105.52 290.07C105.147 290.07 104.803 290.16 104.49 290.34C104.183 290.52 103.94 290.777 103.76 291.11C103.58 291.443 103.49 291.83 103.49 292.27C103.49 292.71 103.58 293.097 103.76 293.43C103.94 293.763 104.183 294.02 104.49 294.2C104.803 294.38 105.147 294.47 105.52 294.47C105.907 294.47 106.253 294.383 106.56 294.21C106.867 294.03 107.107 293.773 107.28 293.44C107.46 293.1 107.55 292.707 107.55 292.26ZM109.228 292.26C109.228 291.7 109.338 291.21 109.558 290.79C109.785 290.363 110.095 290.037 110.488 289.81C110.888 289.577 111.338 289.46 111.838 289.46C112.358 289.46 112.805 289.58 113.178 289.82C113.558 290.06 113.831 290.367 113.998 290.74V289.54H114.698V295H113.998V293.79C113.825 294.163 113.548 294.473 113.168 294.72C112.795 294.96 112.348 295.08 111.828 295.08C111.335 295.08 110.888 294.963 110.488 294.73C110.095 294.497 109.785 294.167 109.558 293.74C109.338 293.313 109.228 292.82 109.228 292.26ZM113.998 292.27C113.998 291.83 113.908 291.443 113.728 291.11C113.548 290.777 113.301 290.52 112.988 290.34C112.681 290.16 112.341 290.07 111.968 290.07C111.581 290.07 111.235 290.157 110.928 290.33C110.621 290.503 110.378 290.757 110.198 291.09C110.025 291.417 109.938 291.807 109.938 292.26C109.938 292.707 110.025 293.1 110.198 293.44C110.378 293.773 110.621 294.03 110.928 294.21C111.235 294.383 111.581 294.47 111.968 294.47C112.341 294.47 112.681 294.38 112.988 294.2C113.301 294.02 113.548 293.763 113.728 293.43C113.908 293.097 113.998 292.71 113.998 292.27ZM116.996 290.51C117.149 290.17 117.383 289.907 117.696 289.72C118.016 289.533 118.406 289.44 118.866 289.44V290.17H118.676C118.169 290.17 117.763 290.307 117.456 290.58C117.149 290.853 116.996 291.31 116.996 291.95V295H116.296V289.54H116.996V290.51ZM119.599 292.26C119.599 291.7 119.709 291.21 119.929 290.79C120.156 290.363 120.466 290.037 120.859 289.81C121.259 289.577 121.709 289.46 122.209 289.46C122.729 289.46 123.176 289.58 123.549 289.82C123.929 290.06 124.202 290.367 124.369 290.74V289.54H125.069V295H124.369V293.79C124.196 294.163 123.919 294.473 123.539 294.72C123.166 294.96 122.719 295.08 122.199 295.08C121.706 295.08 121.259 294.963 120.859 294.73C120.466 294.497 120.156 294.167 119.929 293.74C119.709 293.313 119.599 292.82 119.599 292.26ZM124.369 292.27C124.369 291.83 124.279 291.443 124.099 291.11C123.919 290.777 123.672 290.52 123.359 290.34C123.052 290.16 122.712 290.07 122.339 290.07C121.952 290.07 121.606 290.157 121.299 290.33C120.992 290.503 120.749 290.757 120.569 291.09C120.396 291.417 120.309 291.807 120.309 292.26C120.309 292.707 120.396 293.1 120.569 293.44C120.749 293.773 120.992 294.03 121.299 294.21C121.606 294.383 121.952 294.47 122.339 294.47C122.712 294.47 123.052 294.38 123.359 294.2C123.672 294.02 123.919 293.763 124.099 293.43C124.279 293.097 124.369 292.71 124.369 292.27ZM129.091 292.26C129.091 291.7 129.201 291.21 129.421 290.79C129.648 290.363 129.958 290.037 130.351 289.81C130.751 289.577 131.201 289.46 131.701 289.46C132.221 289.46 132.668 289.58 133.041 289.82C133.421 290.06 133.695 290.367 133.861 290.74V289.54H134.561V295H133.861V293.79C133.688 294.163 133.411 294.473 133.031 294.72C132.658 294.96 132.211 295.08 131.691 295.08C131.198 295.08 130.751 294.963 130.351 294.73C129.958 294.497 129.648 294.167 129.421 293.74C129.201 293.313 129.091 292.82 129.091 292.26ZM133.861 292.27C133.861 291.83 133.771 291.443 133.591 291.11C133.411 290.777 133.165 290.52 132.851 290.34C132.545 290.16 132.205 290.07 131.831 290.07C131.445 290.07 131.098 290.157 130.791 290.33C130.485 290.503 130.241 290.757 130.061 291.09C129.888 291.417 129.801 291.807 129.801 292.26C129.801 292.707 129.888 293.1 130.061 293.44C130.241 293.773 130.485 294.03 130.791 294.21C131.098 294.383 131.445 294.47 131.831 294.47C132.205 294.47 132.545 294.38 132.851 294.2C133.165 294.02 133.411 293.763 133.591 293.43C133.771 293.097 133.861 292.71 133.861 292.27ZM140.659 289.54L137.419 297.57H136.689L137.749 294.97L135.509 289.54H136.279L138.139 294.2L139.939 289.54H140.659ZM146.339 289.54V295H145.639V294.04C145.479 294.38 145.232 294.64 144.899 294.82C144.565 295 144.192 295.09 143.779 295.09C143.125 295.09 142.592 294.89 142.179 294.49C141.765 294.083 141.559 293.497 141.559 292.73V289.54H142.249V292.65C142.249 293.243 142.395 293.697 142.689 294.01C142.989 294.323 143.395 294.48 143.909 294.48C144.435 294.48 144.855 294.313 145.169 293.98C145.482 293.647 145.639 293.157 145.639 292.51V289.54H146.339ZM147.617 292.26C147.617 291.7 147.73 291.21 147.957 290.79C148.183 290.363 148.493 290.037 148.887 289.81C149.287 289.577 149.737 289.46 150.237 289.46C150.717 289.46 151.15 289.577 151.537 289.81C151.923 290.043 152.207 290.347 152.387 290.72V287.6H153.087V295H152.387V293.78C152.22 294.16 151.947 294.473 151.567 294.72C151.187 294.96 150.74 295.08 150.227 295.08C149.727 295.08 149.277 294.963 148.877 294.73C148.483 294.497 148.173 294.167 147.947 293.74C147.727 293.313 147.617 292.82 147.617 292.26ZM152.387 292.27C152.387 291.83 152.297 291.443 152.117 291.11C151.937 290.777 151.69 290.52 151.377 290.34C151.07 290.16 150.73 290.07 150.357 290.07C149.97 290.07 149.623 290.157 149.317 290.33C149.01 290.503 148.767 290.757 148.587 291.09C148.413 291.417 148.327 291.807 148.327 292.26C148.327 292.707 148.413 293.1 148.587 293.44C148.767 293.773 149.01 294.03 149.317 294.21C149.623 294.383 149.97 294.47 150.357 294.47C150.73 294.47 151.07 294.38 151.377 294.2C151.69 294.02 151.937 293.763 152.117 293.43C152.297 293.097 152.387 292.71 152.387 292.27ZM154.365 292.26C154.365 291.7 154.475 291.21 154.695 290.79C154.921 290.363 155.231 290.037 155.625 289.81C156.025 289.577 156.475 289.46 156.975 289.46C157.495 289.46 157.941 289.58 158.315 289.82C158.695 290.06 158.968 290.367 159.135 290.74V289.54H159.835V295H159.135V293.79C158.961 294.163 158.685 294.473 158.305 294.72C157.931 294.96 157.485 295.08 156.965 295.08C156.471 295.08 156.025 294.963 155.625 294.73C155.231 294.497 154.921 294.167 154.695 293.74C154.475 293.313 154.365 292.82 154.365 292.26ZM159.135 292.27C159.135 291.83 159.045 291.443 158.865 291.11C158.685 290.777 158.438 290.52 158.125 290.34C157.818 290.16 157.478 290.07 157.105 290.07C156.718 290.07 156.371 290.157 156.065 290.33C155.758 290.503 155.515 290.757 155.335 291.09C155.161 291.417 155.075 291.807 155.075 292.26C155.075 292.707 155.161 293.1 155.335 293.44C155.515 293.773 155.758 294.03 156.065 294.21C156.371 294.383 156.718 294.47 157.105 294.47C157.478 294.47 157.818 294.38 158.125 294.2C158.438 294.02 158.685 293.763 158.865 293.43C159.045 293.097 159.135 292.71 159.135 292.27ZM162.133 290.51C162.286 290.17 162.519 289.907 162.833 289.72C163.153 289.533 163.543 289.44 164.003 289.44V290.17H163.813C163.306 290.17 162.899 290.307 162.593 290.58C162.286 290.853 162.133 291.31 162.133 291.95V295H161.433V289.54H162.133V290.51ZM165.966 290.13V293.52C165.966 293.853 166.029 294.083 166.156 294.21C166.283 294.337 166.506 294.4 166.826 294.4H167.466V295H166.716C166.223 295 165.856 294.887 165.616 294.66C165.376 294.427 165.256 294.047 165.256 293.52V290.13H164.496V289.54H165.256V288.17H165.966V289.54H167.466V290.13H165.966ZM173.56 291.99C173.56 292.23 173.554 292.413 173.54 292.54H169.01C169.03 292.953 169.13 293.307 169.31 293.6C169.49 293.893 169.727 294.117 170.02 294.27C170.314 294.417 170.634 294.49 170.98 294.49C171.434 294.49 171.814 294.38 172.12 294.16C172.434 293.94 172.64 293.643 172.74 293.27H173.48C173.347 293.803 173.06 294.24 172.62 294.58C172.187 294.913 171.64 295.08 170.98 295.08C170.467 295.08 170.007 294.967 169.6 294.74C169.194 294.507 168.874 294.18 168.64 293.76C168.414 293.333 168.3 292.837 168.3 292.27C168.3 291.703 168.414 291.207 168.64 290.78C168.867 290.353 169.184 290.027 169.59 289.8C169.997 289.573 170.46 289.46 170.98 289.46C171.5 289.46 171.954 289.573 172.34 289.8C172.734 290.027 173.034 290.333 173.24 290.72C173.454 291.1 173.56 291.523 173.56 291.99ZM172.85 291.97C172.857 291.563 172.774 291.217 172.6 290.93C172.434 290.643 172.204 290.427 171.91 290.28C171.617 290.133 171.297 290.06 170.95 290.06C170.43 290.06 169.987 290.227 169.62 290.56C169.254 290.893 169.05 291.363 169.01 291.97H172.85ZM174.961 295.05C174.814 295.05 174.691 295 174.591 294.9C174.498 294.8 174.451 294.677 174.451 294.53C174.451 294.383 174.498 294.263 174.591 294.17C174.691 294.07 174.814 294.02 174.961 294.02C175.101 294.02 175.218 294.07 175.311 294.17C175.411 294.263 175.461 294.383 175.461 294.53C175.461 294.677 175.411 294.8 175.311 294.9C175.218 295 175.101 295.05 174.961 295.05Z" fill="black"/>
<path d="M66.868 363.14H63.22L62.548 365H61.396L64.42 356.684H65.68L68.692 365H67.54L66.868 363.14ZM66.556 362.252L65.044 358.028L63.532 362.252H66.556ZM69.6019 361.688C69.6019 361.016 69.7379 360.428 70.0099 359.924C70.2819 359.412 70.6539 359.016 71.1259 358.736C71.6059 358.456 72.1379 358.316 72.7219 358.316C73.2979 358.316 73.7979 358.44 74.2219 358.688C74.6459 358.936 74.9619 359.248 75.1699 359.624V358.424H76.2739V365H75.1699V363.776C74.9539 364.16 74.6299 364.48 74.1979 364.736C73.7739 364.984 73.2779 365.108 72.7099 365.108C72.1259 365.108 71.5979 364.964 71.1259 364.676C70.6539 364.388 70.2819 363.984 70.0099 363.464C69.7379 362.944 69.6019 362.352 69.6019 361.688ZM75.1699 361.7C75.1699 361.204 75.0699 360.772 74.8699 360.404C74.6699 360.036 74.3979 359.756 74.0539 359.564C73.7179 359.364 73.3459 359.264 72.9379 359.264C72.5299 359.264 72.1579 359.36 71.8219 359.552C71.4859 359.744 71.2179 360.024 71.0179 360.392C70.8179 360.76 70.7179 361.192 70.7179 361.688C70.7179 362.192 70.8179 362.632 71.0179 363.008C71.2179 363.376 71.4859 363.66 71.8219 363.86C72.1579 364.052 72.5299 364.148 72.9379 364.148C73.3459 364.148 73.7179 364.052 74.0539 363.86C74.3979 363.66 74.6699 363.376 74.8699 363.008C75.0699 362.632 75.1699 362.196 75.1699 361.7Z" fill="#474956"/>
<defs>
<filter id="filter0_d_146_962" x="0" y="0" width="301" height="441" filterUnits="userSpaceOnUse" color-interpolation-filters="sRGB">
<feFlood flood-opacity="0" result="BackgroundImageFix"/>
<feColorMatrix in="SourceAlpha" type="matrix" values="0 0 0 0 0 0 0 0 0 0 0 0 0 0 0 0 0 0 127 0" result="hardAlpha"/>
<feOffset dy="4"/>
<feGaussianBlur stdDeviation="2"/>
<feComposite in2="hardAlpha" operator="out"/>
<feColorMatrix type="matrix" values="0 0 0 0 0 0 0 0 0 0.298039 0 0 0 0 0.54902 0 0 0 1 0"/>
<feBlend mode="normal" in2="BackgroundImageFix" result="effect1_dropShadow_146_962"/>
<feBlend mode="normal" in="SourceGraphic" in2="effect1_dropShadow_146_962" result="shape"/>
</filter>
</defs>
</svg>
