<svg width="97" height="97" viewBox="0 0 97 97" fill="none" xmlns="http://www.w3.org/2000/svg">
<path d="M31.4915 85.8857H65.5061C69.2578 85.8857 72.8559 84.3953 75.5088 81.7425C78.1616 79.0896 79.652 75.4916 79.652 71.7399V49.3895C79.6533 45.6382 78.1646 42.0401 75.5133 39.3863L51.3886 15.2576C50.0749 13.944 48.5154 12.9021 46.7991 12.1913C45.0827 11.4805 43.2432 11.1147 41.3855 11.1149H31.4915C27.7398 11.1149 24.1417 12.6052 21.4889 15.2581C18.836 17.9109 17.3456 21.509 17.3456 25.2607V71.7399C17.3456 75.4916 18.836 79.0896 21.4889 81.7425C24.1417 84.3953 27.7398 85.8857 31.4915 85.8857Z" stroke="#004C8C" stroke-width="6.0625" stroke-linecap="round" stroke-linejoin="round"/>
<path d="M47.2408 12.5693V35.4452C47.2408 37.589 48.0924 39.645 49.6083 41.1609C51.1243 42.6769 53.1803 43.5285 55.3241 43.5285H78.208" stroke="#004C8C" stroke-width="6.0625" stroke-linecap="round" stroke-linejoin="round"/>
<path d="M29.3002 66.6875V62.6458M29.3002 62.6458V54.5625H33.3419C34.4138 54.5625 35.4418 54.9883 36.1998 55.7463C36.9577 56.5042 37.3836 57.5322 37.3836 58.6042C37.3836 59.6761 36.9577 60.7041 36.1998 61.4621C35.4418 62.22 34.4138 62.6458 33.3419 62.6458H29.3002ZM61.6336 66.6875V61.6354M61.6336 61.6354V54.5625H67.6961M61.6336 61.6354H67.6961M45.4669 66.6875V54.5625H47.4877C49.0956 54.5625 50.6376 55.2012 51.7746 56.3382C52.9115 57.4751 53.5502 59.0171 53.5502 60.625C53.5502 62.2329 52.9115 63.7749 51.7746 64.9118C50.6376 66.0488 49.0956 66.6875 47.4877 66.6875H45.4669Z" stroke="#004C8C" stroke-width="4.04167" stroke-linecap="round" stroke-linejoin="round"/>
</svg>
